<svg width="654" height="490" viewBox="0 0 654 490" fill="none" xmlns="http://www.w3.org/2000/svg">
<g clip-path="url(#clip0_557_5322)">
<path d="M654 430.607H0V430.94H654V430.607Z" fill="#B9A4FF"/>
<path d="M588.475 451.789H545.149V452.122H588.475V451.789Z" fill="#B9A4FF"/>
<path d="M433.219 455.355H421.857V455.689H433.219V455.355Z" fill="#B9A4FF"/>
<path d="M543.824 439.562H518.721V439.895H543.824V439.562Z" fill="#B9A4FF"/>
<path d="M125.124 441.776H68.6235V442.109H125.124V441.776Z" fill="#B9A4FF"/>
<path d="M145.043 441.776H136.76V442.109H145.043V441.776Z" fill="#B9A4FF"/>
<path d="M294.491 447.322H171.958V447.655H294.491V447.322Z" fill="#B9A4FF"/>
<path d="M310.024 371.978H57.4557C55.476 371.978 53.5775 371.187 52.1776 369.779C50.7777 368.372 49.9912 366.463 49.9912 364.473V7.505C49.9912 5.51455 50.7777 3.60565 52.1776 2.19819C53.5775 0.790732 55.476 0 57.4557 0H310.024C312.002 0.00517261 313.898 0.797562 315.297 2.2039C316.695 3.61024 317.484 5.51614 317.489 7.505V364.473C317.484 366.461 316.695 368.367 315.297 369.774C313.898 371.18 312.002 371.972 310.024 371.978ZM57.4557 0.333146C55.5621 0.333139 53.7457 1.08812 52.4048 2.43255C51.064 3.77698 50.3083 5.6011 50.3031 7.505V364.473C50.3083 366.376 51.064 368.201 52.4048 369.545C53.7457 370.889 55.5621 371.644 57.4557 371.644H310.024C311.916 371.644 313.731 370.889 315.068 369.544C316.406 368.199 317.157 366.375 317.157 364.473V7.505C317.157 5.6029 316.406 3.7787 315.068 2.43371C313.731 1.08873 311.916 0.333146 310.024 0.333146H57.4557Z" fill="#B9A4FF"/>
<path d="M592.938 371.978H340.37C338.39 371.978 336.491 371.187 335.091 369.779C333.692 368.372 332.905 366.463 332.905 364.473V7.505C332.905 6.51943 333.098 5.54353 333.473 4.63298C333.849 3.72243 334.398 2.8951 335.091 2.19819C335.785 1.50129 336.608 0.948462 337.513 0.5713C338.419 0.194139 339.39 0 340.37 0H592.938C594.916 0.00517261 596.812 0.797562 598.211 2.2039C599.61 3.61024 600.398 5.51614 600.403 7.505V364.473C600.398 366.461 599.61 368.367 598.211 369.774C596.812 371.18 594.916 371.972 592.938 371.978ZM340.37 0.333146C338.476 0.333139 336.66 1.08812 335.319 2.43255C333.978 3.77698 333.222 5.6011 333.217 7.505V364.473C333.222 366.376 333.978 368.201 335.319 369.545C336.66 370.889 338.476 371.644 340.37 371.644H592.938C594.83 371.644 596.644 370.889 597.982 369.544C599.32 368.199 600.071 366.375 600.071 364.473V7.505C600.071 5.6029 599.32 3.7787 597.982 2.43371C596.644 1.08873 594.83 0.333146 592.938 0.333146H340.37Z" fill="#B9A4FF"/>
<path d="M310.044 165.913V189.016L321.855 190.212C323.44 197.819 326.435 205.058 330.684 211.551L323.083 220.78L339.337 237.103L348.517 229.461C354.974 233.736 362.174 236.747 369.741 238.338L370.852 250.232H393.831L394.942 238.338C402.519 236.728 409.726 233.697 416.186 229.402L425.365 237.044L441.6 220.721L433.999 211.492C438.249 205.021 441.244 197.801 442.828 190.212L454.658 189.095V165.913L442.828 164.797C441.258 157.185 438.262 149.943 433.999 143.457L441.6 134.228L425.365 117.885L416.186 125.547C409.727 121.276 402.527 118.264 394.961 116.67L393.85 104.776H370.872L369.761 116.67C362.194 118.261 354.993 121.272 348.536 125.547L339.357 117.905L323.102 134.247L330.703 143.477C326.45 149.941 323.448 157.154 321.855 164.738L310.044 165.913ZM382.273 146.181C390.544 146.181 398.475 149.484 404.324 155.364C410.172 161.244 413.457 169.218 413.457 177.533C413.457 185.849 410.172 193.823 404.324 199.703C398.475 205.583 390.544 208.886 382.273 208.886C374.003 208.886 366.071 205.583 360.223 199.703C354.375 193.823 351.09 185.849 351.09 177.533C351.09 169.218 354.375 161.244 360.223 155.364C366.071 149.484 374.003 146.181 382.273 146.181Z" fill="#F0F0F0"/>
<path d="M271.181 269.279L277.769 274.765L289.463 263.008L284.005 256.385C287.053 251.721 289.202 246.523 290.34 241.061L298.837 240.238V223.641L290.34 222.838C289.209 217.374 287.06 212.174 284.005 207.514L289.463 200.891L277.769 189.134L271.181 194.621C266.559 191.552 261.401 189.391 255.979 188.252L255.18 179.689H238.672L237.873 188.233C232.436 189.36 227.263 191.522 222.632 194.601L216.025 189.114L204.331 200.871L209.808 207.495C206.747 212.154 204.591 217.353 203.454 222.818L194.957 223.622V240.219L203.454 241.042C204.599 246.505 206.754 251.703 209.808 256.365L204.331 262.989L216.025 274.746L222.632 269.259C227.265 272.337 232.437 274.505 237.873 275.647L238.672 284.191H255.18L255.979 275.647C261.398 274.5 266.555 272.34 271.181 269.279ZM224.523 232.048C224.523 226.087 226.878 220.37 231.07 216.155C235.262 211.94 240.949 209.572 246.877 209.572C252.793 209.572 258.467 211.929 262.657 216.127C266.847 220.325 269.212 226.022 269.232 231.969C269.232 237.927 266.88 243.641 262.691 247.855C258.503 252.07 252.822 254.44 246.897 254.445C240.975 254.435 235.299 252.062 231.115 247.848C226.931 243.634 224.581 237.923 224.581 231.969L224.523 232.048Z" fill="#F5F5F5"/>
<path d="M344.6 381.697C351.075 380.339 357.237 377.767 362.764 374.114L370.56 380.658L384.476 366.687L377.966 358.849C381.6 353.292 384.158 347.096 385.509 340.586L395.624 339.626V319.815L385.509 318.855C384.16 312.35 381.601 306.161 377.966 300.612L384.476 292.773L370.579 278.743L362.783 285.268C357.256 281.615 351.094 279.043 344.619 277.685L343.664 267.515H323.999L323.044 277.685C316.569 279.043 310.406 281.615 304.879 285.268L297.083 278.743L283.168 292.715L289.677 300.553C286.043 306.102 283.484 312.292 282.135 318.796L272.02 319.756V339.567L282.135 340.527C283.485 347.037 286.044 353.233 289.677 358.79L283.168 366.628L297.083 380.6L304.879 374.055C310.406 377.708 316.569 380.281 323.044 381.638L323.999 391.828H343.645L344.6 381.697ZM307.218 329.691C307.218 324.401 308.778 319.229 311.701 314.831C314.625 310.432 318.78 307.004 323.641 304.979C328.502 302.955 333.851 302.425 339.012 303.457C344.172 304.489 348.913 307.037 352.633 310.778C356.354 314.518 358.887 319.284 359.914 324.473C360.94 329.661 360.414 335.039 358.4 339.927C356.387 344.814 352.977 348.992 348.602 351.931C344.227 354.87 339.083 356.439 333.822 356.439C326.766 356.439 319.999 353.621 315.01 348.604C310.021 343.588 307.218 336.785 307.218 329.691Z" fill="#FAFAFA"/>
<path d="M185.051 142.332L124.88 134.067L116.659 194.564L176.83 202.829L185.051 142.332Z" fill="#F5F5F5"/>
<path d="M133.447 152.863L172.641 158.252" stroke="#E0E0E0" stroke-width="3" stroke-miterlimit="10"/>
<path d="M131.79 165.149L170.965 170.518" stroke="#E0E0E0" stroke-width="3" stroke-miterlimit="10"/>
<path d="M130.056 177.827L153.132 181.002" stroke="#E0E0E0" stroke-width="3" stroke-miterlimit="10"/>
<path d="M521.945 75.6418L461.215 75.855L461.427 136.914L522.157 136.7L521.945 75.6418Z" fill="#F0F0F0"/>
<path d="M472.277 92.7053L511.822 92.5681" stroke="#E0E0E0" stroke-width="3" stroke-miterlimit="10"/>
<path d="M472.316 105.09L511.861 104.952" stroke="#E0E0E0" stroke-width="3" stroke-miterlimit="10"/>
<path d="M472.375 117.885L495.645 117.807" stroke="#E0E0E0" stroke-width="3" stroke-miterlimit="10"/>
<path d="M558.393 224.375L498.145 232.049L505.777 292.623L566.026 284.95L558.393 224.375Z" fill="#F5F5F5"/>
<path d="M511.218 247.626L550.431 242.629" stroke="#E0E0E0" stroke-width="3" stroke-miterlimit="10"/>
<path d="M512.757 259.912L551.99 254.915" stroke="#E0E0E0" stroke-width="3" stroke-miterlimit="10"/>
<path d="M514.355 272.61L537.451 269.67" stroke="#E0E0E0" stroke-width="3" stroke-miterlimit="10"/>
<path d="M235.35 322.861L174.62 323.074L174.832 384.133L235.562 383.92L235.35 322.861Z" fill="#F0F0F0"/>
<path d="M185.718 339.959L225.263 339.822" stroke="#E0E0E0" stroke-width="3" stroke-miterlimit="10"/>
<path d="M185.757 352.343L225.302 352.206" stroke="#E0E0E0" stroke-width="3" stroke-miterlimit="10"/>
<path d="M185.816 365.158L209.087 365.06" stroke="#E0E0E0" stroke-width="3" stroke-miterlimit="10"/>
<path d="M503.574 352.762L442.844 352.976L443.056 414.034L503.786 413.821L503.574 352.762Z" fill="#F0F0F0"/>
<path d="M453.937 369.822L493.482 369.685" stroke="#E0E0E0" stroke-width="3" stroke-miterlimit="10"/>
<path d="M453.996 382.206L493.521 382.069" stroke="#E0E0E0" stroke-width="3" stroke-miterlimit="10"/>
<path d="M454.035 395.022L477.325 394.924" stroke="#E0E0E0" stroke-width="3" stroke-miterlimit="10"/>
<path d="M247.664 71.5195L188.377 84.7559L201.543 144.363L260.829 131.126L247.664 71.5195Z" fill="#F0F0F0"/>
<path d="M202.831 99.015L241.42 90.3931" stroke="#E0E0E0" stroke-width="3" stroke-miterlimit="10"/>
<path d="M205.5 111.105L244.09 102.483" stroke="#E0E0E0" stroke-width="3" stroke-miterlimit="10"/>
<path d="M208.249 123.607L230.993 118.532" stroke="#E0E0E0" stroke-width="3" stroke-miterlimit="10"/>
<path d="M129.802 140.91H128.711L127.229 133.934H131.303L129.802 140.91Z" fill="#E0E0E0"/>
<path d="M129.256 139.185C132.313 139.185 134.791 137.229 134.791 134.816C134.791 132.402 132.313 130.446 129.256 130.446C126.199 130.446 123.721 132.402 123.721 134.816C123.721 137.229 126.199 139.185 129.256 139.185Z" fill="#E6E6E6"/>
<path d="M240.758 80.0665H239.686L238.185 73.0906H242.258L240.758 80.0665Z" fill="#E0E0E0"/>
<path d="M240.231 78.342C243.288 78.342 245.767 76.3856 245.767 73.9723C245.767 71.5589 243.288 69.6025 240.231 69.6025C237.174 69.6025 234.696 71.5589 234.696 73.9723C234.696 76.3856 237.174 78.342 240.231 78.342Z" fill="#E6E6E6"/>
<path d="M490.676 81.8103H489.584L488.083 74.854H492.176L490.676 81.8103Z" fill="#E0E0E0"/>
<path d="M490.13 80.0859C493.187 80.0859 495.665 78.1295 495.665 75.7162C495.665 73.3028 493.187 71.3464 490.13 71.3464C487.073 71.3464 484.595 73.3028 484.595 75.7162C484.595 78.1295 487.073 80.0859 490.13 80.0859Z" fill="#E6E6E6"/>
<path d="M552.77 233.027H551.678L550.178 226.071H554.251L552.77 233.027Z" fill="#E0E0E0"/>
<path d="M552.224 231.303C555.281 231.303 557.759 229.347 557.759 226.933C557.759 224.52 555.281 222.563 552.224 222.563C549.167 222.563 546.689 224.52 546.689 226.933C546.689 229.347 549.167 231.303 552.224 231.303Z" fill="#E6E6E6"/>
<path d="M474.265 359.417H473.174L471.673 352.46H475.746L474.265 359.417Z" fill="#E0E0E0"/>
<path d="M473.719 357.693C476.776 357.693 479.254 355.736 479.254 353.323C479.254 350.91 476.776 348.953 473.719 348.953C470.662 348.953 468.184 350.91 468.184 353.323C468.184 355.736 470.662 357.693 473.719 357.693Z" fill="#E6E6E6"/>
<path d="M203.376 328.123H202.285L200.784 321.167H204.858L203.376 328.123Z" fill="#E0E0E0"/>
<path d="M202.831 326.399C205.887 326.399 208.366 324.443 208.366 322.029C208.366 319.616 205.887 317.659 202.831 317.659C199.774 317.659 197.295 319.616 197.295 322.029C197.295 324.443 199.774 326.399 202.831 326.399Z" fill="#E6E6E6"/>
<path d="M327 490C467.06 490 580.601 483.332 580.601 475.108C580.601 466.883 467.06 460.215 327 460.215C186.94 460.215 73.3984 466.883 73.3984 475.108C73.3984 483.332 186.94 490 327 490Z" fill="#B9A4FF"/>
<path d="M187.921 254.974C187.921 246.313 193.592 239.298 200.57 239.298C207.547 239.298 213.199 246.333 213.199 254.974C213.199 263.616 207.528 270.65 200.57 270.65C193.612 270.65 187.921 263.635 187.921 254.974ZM190.532 254.974C190.532 262.185 195.035 268.064 200.57 268.064C206.105 268.064 210.588 262.185 210.588 254.974C210.588 247.763 206.085 241.904 200.57 241.904C195.054 241.904 190.532 247.763 190.532 254.974Z" fill="#263238"/>
<path d="M163.052 254.974C163.052 246.313 168.723 239.298 175.701 239.298C182.678 239.298 188.33 246.333 188.33 254.974C188.33 263.616 182.658 270.65 175.701 270.65C168.743 270.65 163.052 263.635 163.052 254.974ZM165.683 254.974C165.683 262.185 170.166 268.064 175.701 268.064C181.236 268.064 185.718 262.185 185.718 254.974C185.718 247.763 181.216 241.904 175.701 241.904C170.185 241.904 165.683 247.763 165.683 254.974Z" fill="#263238"/>
<path d="M138.183 254.974C138.183 246.313 143.854 239.298 150.831 239.298C157.809 239.298 163.461 246.333 163.461 254.974C163.461 263.616 157.789 270.65 150.831 270.65C143.874 270.65 138.183 263.635 138.183 254.974ZM140.814 254.974C140.814 262.185 145.296 268.064 150.831 268.064C156.367 268.064 160.849 262.185 160.849 254.974C160.849 247.763 156.347 241.904 150.831 241.904C145.316 241.904 140.814 247.763 140.814 254.974Z" fill="#263238"/>
<path d="M113.314 254.974C113.314 246.313 118.985 239.298 125.963 239.298C132.94 239.298 138.592 246.333 138.592 254.974C138.592 263.616 132.921 270.65 125.963 270.65C119.005 270.65 113.314 263.635 113.314 254.974ZM115.945 254.974C115.945 262.185 120.428 268.064 125.963 268.064C131.498 268.064 135.981 262.185 135.981 254.974C135.981 247.763 131.478 241.904 125.963 241.904C120.447 241.904 115.945 247.763 115.945 254.974Z" fill="#263238"/>
<path d="M212.712 254.974C212.712 246.313 218.383 239.298 225.361 239.298C232.338 239.298 237.99 246.333 237.99 254.974C237.99 263.616 232.319 270.65 225.361 270.65C218.403 270.65 212.712 263.635 212.712 254.974ZM215.323 254.974C215.323 262.185 219.826 268.064 225.361 268.064C230.896 268.064 235.379 262.185 235.379 254.974C235.379 247.763 230.876 241.904 225.361 241.904C219.845 241.904 215.402 247.763 215.402 254.974H215.323Z" fill="#263238"/>
<path d="M96.8646 471.894H252.627L252.627 255.288L96.8646 255.288L96.8646 471.894Z" fill="#263238"/>
<path opacity="0.7" d="M96.8646 471.894H252.627L252.627 255.288L96.8646 255.288L96.8646 471.894Z" fill="white"/>
<path opacity="0.6" d="M110.897 471.894H252.607L252.607 255.288L110.897 255.288L110.897 471.894Z" fill="white"/>
<path opacity="0.2" d="M101.542 471.894L100.879 269.455L100.217 471.894H101.542Z" fill="black"/>
<path opacity="0.2" d="M108.051 471.894L107.408 282.055L106.746 471.894H108.051Z" fill="black"/>
<path opacity="0.2" d="M103.491 255.444L104.134 407.621L104.797 255.444H103.491Z" fill="black"/>
<path d="M229.2 265.575C229.107 266.656 229.438 267.731 230.123 268.569C230.808 269.408 231.791 269.944 232.864 270.062C233.937 269.944 234.921 269.408 235.605 268.569C236.29 267.731 236.621 266.656 236.528 265.575C236.621 264.496 236.289 263.424 235.604 262.589C234.919 261.753 233.935 261.221 232.864 261.107C231.793 261.221 230.809 261.753 230.124 262.589C229.439 263.424 229.107 264.496 229.2 265.575Z" fill="#263238"/>
<path d="M233.078 266.908C233.266 266.908 233.452 266.868 233.624 266.79C233.795 266.712 233.948 266.599 234.072 266.457C236.673 263.208 238.053 259.143 237.97 254.974C237.97 246.313 232.299 239.298 225.341 239.298C220.196 239.298 215.596 243.099 213.647 248.978C213.542 249.311 213.571 249.671 213.728 249.983C213.884 250.294 214.157 250.532 214.485 250.644C214.648 250.699 214.82 250.722 214.991 250.71C215.162 250.699 215.33 250.654 215.483 250.577C215.637 250.501 215.775 250.395 215.888 250.265C216.001 250.135 216.087 249.984 216.142 249.821C217.74 245.02 221.346 241.982 225.341 241.982C230.857 241.982 235.359 247.861 235.359 255.052C235.439 258.529 234.324 261.928 232.202 264.674C232.072 264.806 231.972 264.965 231.909 265.139C231.845 265.313 231.819 265.499 231.832 265.684C231.844 265.87 231.896 266.05 231.984 266.213C232.071 266.377 232.192 266.52 232.338 266.633C232.549 266.803 232.809 266.899 233.078 266.908Z" fill="#263238"/>
<g opacity="0.4">
<path d="M233.078 266.908C233.266 266.908 233.452 266.868 233.624 266.79C233.795 266.712 233.948 266.599 234.072 266.457C236.673 263.208 238.053 259.143 237.97 254.974C237.97 246.313 232.299 239.298 225.341 239.298C220.196 239.298 215.596 243.099 213.647 248.978C213.542 249.311 213.571 249.671 213.728 249.983C213.884 250.294 214.157 250.532 214.485 250.644C214.648 250.699 214.82 250.722 214.991 250.71C215.162 250.699 215.33 250.654 215.483 250.577C215.637 250.501 215.775 250.395 215.888 250.265C216.001 250.135 216.087 249.984 216.142 249.821C217.74 245.02 221.346 241.982 225.341 241.982C230.857 241.982 235.359 247.861 235.359 255.052C235.439 258.529 234.324 261.928 232.202 264.674C232.072 264.806 231.972 264.965 231.909 265.139C231.845 265.313 231.819 265.499 231.832 265.684C231.844 265.87 231.896 266.05 231.984 266.213C232.071 266.377 232.192 266.52 232.338 266.633C232.549 266.803 232.809 266.899 233.078 266.908Z" fill="white"/>
</g>
<path d="M204.331 265.575C204.238 266.656 204.569 267.731 205.254 268.569C205.939 269.408 206.922 269.944 207.995 270.062C209.068 269.944 210.051 269.408 210.736 268.569C211.421 267.731 211.752 266.656 211.659 265.575C211.752 264.496 211.42 263.424 210.735 262.589C210.05 261.753 209.066 261.221 207.995 261.107C206.924 261.221 205.94 261.753 205.255 262.589C204.57 263.424 204.238 264.496 204.331 265.575Z" fill="#263238"/>
<path d="M208.21 266.908C208.398 266.908 208.584 266.868 208.755 266.79C208.926 266.712 209.079 266.599 209.204 266.457C211.804 263.208 213.184 259.143 213.102 254.974C213.102 246.313 207.43 239.298 200.472 239.298C195.327 239.298 190.727 243.099 188.778 248.978C188.673 249.311 188.702 249.671 188.859 249.983C189.016 250.294 189.288 250.532 189.617 250.644C189.779 250.699 189.951 250.722 190.122 250.71C190.293 250.699 190.461 250.654 190.615 250.577C190.769 250.501 190.906 250.395 191.019 250.265C191.132 250.135 191.218 249.984 191.273 249.821C192.871 245.02 196.477 241.982 200.472 241.982C205.988 241.982 210.49 247.861 210.49 255.052C210.556 258.614 209.369 262.084 207.138 264.85C207.009 264.983 206.909 265.141 206.845 265.316C206.781 265.49 206.755 265.676 206.768 265.861C206.781 266.046 206.833 266.226 206.92 266.39C207.007 266.553 207.128 266.696 207.274 266.81C207.561 266.964 207.897 266.999 208.21 266.908Z" fill="#263238"/>
<g opacity="0.4">
<path d="M208.21 266.908C208.398 266.908 208.584 266.868 208.755 266.79C208.926 266.712 209.079 266.599 209.204 266.457C211.804 263.208 213.184 259.143 213.102 254.974C213.102 246.313 207.43 239.298 200.472 239.298C195.327 239.298 190.727 243.099 188.778 248.978C188.673 249.311 188.702 249.671 188.859 249.983C189.016 250.294 189.288 250.532 189.617 250.644C189.779 250.699 189.951 250.722 190.122 250.71C190.293 250.699 190.461 250.654 190.615 250.577C190.769 250.501 190.906 250.395 191.019 250.265C191.132 250.135 191.218 249.984 191.273 249.821C192.871 245.02 196.477 241.982 200.472 241.982C205.988 241.982 210.49 247.861 210.49 255.052C210.556 258.614 209.369 262.084 207.138 264.85C207.009 264.983 206.909 265.141 206.845 265.316C206.781 265.49 206.755 265.676 206.768 265.861C206.781 266.046 206.833 266.226 206.92 266.39C207.007 266.553 207.128 266.696 207.274 266.81C207.561 266.964 207.897 266.999 208.21 266.908Z" fill="white"/>
</g>
<path d="M179.462 265.575C179.369 266.656 179.701 267.731 180.385 268.569C181.07 269.408 182.054 269.944 183.126 270.062C184.199 269.944 185.183 269.408 185.867 268.569C186.552 267.731 186.883 266.656 186.79 265.575C186.883 264.496 186.551 263.424 185.866 262.589C185.181 261.753 184.197 261.221 183.126 261.107C182.055 261.221 181.072 261.753 180.386 262.589C179.701 263.424 179.369 264.496 179.462 265.575Z" fill="#263238"/>
<path d="M183.36 266.908C183.545 266.906 183.728 266.865 183.896 266.788C184.064 266.71 184.213 266.597 184.335 266.457C186.944 263.213 188.325 259.145 188.233 254.974C188.233 246.313 182.561 239.298 175.603 239.298C170.458 239.298 165.858 243.099 163.909 248.978C163.804 249.311 163.833 249.671 163.99 249.983C164.147 250.294 164.419 250.532 164.748 250.644C164.91 250.699 165.082 250.722 165.253 250.71C165.424 250.699 165.592 250.654 165.746 250.577C165.899 250.501 166.037 250.395 166.15 250.265C166.263 250.135 166.349 249.984 166.404 249.821C168.002 245.02 171.608 241.982 175.603 241.982C181.119 241.982 185.621 247.861 185.621 255.052C185.687 258.614 184.5 262.084 182.269 264.85C182.142 264.984 182.045 265.143 181.983 265.317C181.921 265.491 181.896 265.676 181.908 265.86C181.921 266.044 181.972 266.224 182.058 266.387C182.143 266.551 182.261 266.695 182.405 266.81C182.698 266.967 183.041 267.002 183.36 266.908Z" fill="#263238"/>
<g opacity="0.4">
<path d="M183.36 266.908C183.545 266.906 183.728 266.865 183.896 266.788C184.064 266.71 184.213 266.597 184.335 266.457C186.944 263.213 188.325 259.145 188.233 254.974C188.233 246.313 182.561 239.298 175.603 239.298C170.458 239.298 165.858 243.099 163.909 248.978C163.804 249.311 163.833 249.671 163.99 249.983C164.147 250.294 164.419 250.532 164.748 250.644C164.91 250.699 165.082 250.722 165.253 250.71C165.424 250.699 165.592 250.654 165.746 250.577C165.899 250.501 166.037 250.395 166.15 250.265C166.263 250.135 166.349 249.984 166.404 249.821C168.002 245.02 171.608 241.982 175.603 241.982C181.119 241.982 185.621 247.861 185.621 255.052C185.687 258.614 184.5 262.084 182.269 264.85C182.142 264.984 182.045 265.143 181.983 265.317C181.921 265.491 181.896 265.676 181.908 265.86C181.921 266.044 181.972 266.224 182.058 266.387C182.143 266.551 182.261 266.695 182.405 266.81C182.698 266.967 183.041 267.002 183.36 266.908Z" fill="white"/>
</g>
<path d="M154.593 265.575C154.5 266.656 154.831 267.731 155.516 268.569C156.201 269.408 157.185 269.944 158.257 270.062C159.33 269.944 160.313 269.408 160.998 268.569C161.683 267.731 162.014 266.656 161.921 265.575C162.014 264.496 161.682 263.424 160.997 262.589C160.312 261.753 159.328 261.221 158.257 261.107C157.186 261.221 156.202 261.753 155.517 262.589C154.832 263.424 154.5 264.496 154.593 265.575Z" fill="#263238"/>
<path d="M158.491 266.908C158.676 266.906 158.859 266.865 159.027 266.788C159.195 266.71 159.344 266.597 159.466 266.457C162.075 263.213 163.456 259.145 163.364 254.974C163.364 246.313 157.692 239.298 150.734 239.298C145.589 239.298 140.989 243.099 139.04 248.978C138.985 249.141 138.963 249.314 138.974 249.486C138.985 249.658 139.03 249.827 139.106 249.981C139.182 250.136 139.288 250.274 139.417 250.388C139.546 250.501 139.696 250.588 139.859 250.644C140.022 250.699 140.193 250.722 140.365 250.71C140.536 250.699 140.703 250.654 140.857 250.577C141.011 250.501 141.148 250.395 141.261 250.265C141.374 250.135 141.461 249.984 141.516 249.821C143.114 245.02 146.719 241.982 150.715 241.982C156.23 241.982 160.733 247.861 160.733 255.052C160.799 258.614 159.612 262.084 157.38 264.85C157.254 264.984 157.157 265.143 157.095 265.317C157.033 265.491 157.007 265.676 157.02 265.86C157.033 266.044 157.084 266.224 157.169 266.387C157.255 266.551 157.373 266.695 157.517 266.81C157.665 266.89 157.827 266.94 157.994 266.957C158.162 266.974 158.331 266.957 158.491 266.908Z" fill="#263238"/>
<g opacity="0.4">
<path d="M158.491 266.908C158.676 266.906 158.859 266.865 159.027 266.788C159.195 266.71 159.344 266.597 159.466 266.457C162.075 263.213 163.456 259.145 163.364 254.974C163.364 246.313 157.692 239.298 150.734 239.298C145.589 239.298 140.989 243.099 139.04 248.978C138.985 249.141 138.963 249.314 138.974 249.486C138.985 249.658 139.03 249.827 139.106 249.981C139.182 250.136 139.288 250.274 139.417 250.388C139.546 250.501 139.696 250.588 139.859 250.644C140.022 250.699 140.193 250.722 140.365 250.71C140.536 250.699 140.703 250.654 140.857 250.577C141.011 250.501 141.148 250.395 141.261 250.265C141.374 250.135 141.461 249.984 141.516 249.821C143.114 245.02 146.719 241.982 150.715 241.982C156.23 241.982 160.733 247.861 160.733 255.052C160.799 258.614 159.612 262.084 157.38 264.85C157.254 264.984 157.157 265.143 157.095 265.317C157.033 265.491 157.007 265.676 157.02 265.86C157.033 266.044 157.084 266.224 157.169 266.387C157.255 266.551 157.373 266.695 157.517 266.81C157.665 266.89 157.827 266.94 157.994 266.957C158.162 266.974 158.331 266.957 158.491 266.908Z" fill="white"/>
</g>
<path d="M129.724 265.575C129.631 266.656 129.963 267.731 130.647 268.569C131.332 269.408 132.316 269.944 133.388 270.062C134.461 269.944 135.445 269.408 136.129 268.569C136.814 267.731 137.146 266.656 137.053 265.575C137.145 264.496 136.813 263.424 136.128 262.589C135.443 261.753 134.459 261.221 133.388 261.107C132.318 261.221 131.334 261.753 130.648 262.589C129.963 263.424 129.632 264.496 129.724 265.575Z" fill="#263238"/>
<path d="M133.622 266.908C133.81 266.906 133.995 266.866 134.167 266.788C134.338 266.71 134.491 266.598 134.616 266.457C137.218 263.209 138.598 259.143 138.514 254.974C138.514 246.313 132.843 239.298 125.885 239.298C120.739 239.298 116.14 243.099 114.191 248.978C114.136 249.141 114.113 249.314 114.124 249.486C114.136 249.658 114.181 249.827 114.257 249.981C114.333 250.136 114.438 250.274 114.568 250.388C114.697 250.501 114.847 250.588 115.009 250.644C115.172 250.699 115.344 250.722 115.515 250.71C115.686 250.699 115.854 250.654 116.007 250.577C116.161 250.501 116.299 250.395 116.412 250.265C116.525 250.135 116.611 249.984 116.666 249.821C118.264 245.02 121.87 241.982 125.865 241.982C131.381 241.982 135.883 247.861 135.883 255.052C135.949 258.614 134.762 262.084 132.531 264.85C132.404 264.984 132.307 265.143 132.245 265.317C132.183 265.491 132.158 265.676 132.17 265.86C132.183 266.044 132.234 266.224 132.32 266.387C132.405 266.551 132.524 266.695 132.667 266.81C132.961 266.965 133.303 267 133.622 266.908Z" fill="#263238"/>
<g opacity="0.4">
<path d="M133.622 266.908C133.81 266.906 133.995 266.866 134.167 266.788C134.338 266.71 134.491 266.598 134.616 266.457C137.218 263.209 138.598 259.143 138.514 254.974C138.514 246.313 132.843 239.298 125.885 239.298C120.739 239.298 116.14 243.099 114.191 248.978C114.136 249.141 114.113 249.314 114.124 249.486C114.136 249.658 114.181 249.827 114.257 249.981C114.333 250.136 114.438 250.274 114.568 250.388C114.697 250.501 114.847 250.588 115.009 250.644C115.172 250.699 115.344 250.722 115.515 250.71C115.686 250.699 115.854 250.654 116.007 250.577C116.161 250.501 116.299 250.395 116.412 250.265C116.525 250.135 116.611 249.984 116.666 249.821C118.264 245.02 121.87 241.982 125.865 241.982C131.381 241.982 135.883 247.861 135.883 255.052C135.949 258.614 134.762 262.084 132.531 264.85C132.404 264.984 132.307 265.143 132.245 265.317C132.183 265.491 132.158 265.676 132.17 265.86C132.183 266.044 132.234 266.224 132.32 266.387C132.405 266.551 132.524 266.695 132.667 266.81C132.961 266.965 133.303 267 133.622 266.908Z" fill="white"/>
</g>
<path d="M151.826 354.93H140.873V373.722H151.826V354.93Z" fill="#8140FF"/>
<path d="M169.581 341.252H158.627V373.721H169.581V341.252Z" fill="#8140FF"/>
<path d="M187.336 346.386H176.383V373.722H187.336V346.386Z" fill="#8140FF"/>
<path d="M205.091 332.708H194.138V373.721H205.091V332.708Z" fill="#8140FF"/>
<path d="M222.846 319.031H211.893V373.721H222.846V319.031Z" fill="#8140FF"/>
<path opacity="0.5" d="M151.826 354.93H140.873V373.722H151.826V354.93Z" fill="white"/>
<path opacity="0.5" d="M169.581 341.252H158.627V373.721H169.581V341.252Z" fill="white"/>
<path opacity="0.5" d="M187.336 346.386H176.383V373.722H187.336V346.386Z" fill="white"/>
<path opacity="0.5" d="M205.091 332.708H194.138V373.721H205.091V332.708Z" fill="white"/>
<path opacity="0.5" d="M222.846 319.031H211.893V373.721H222.846V319.031Z" fill="white"/>
<path d="M237.464 371.115H125.807V376.328H237.464V371.115Z" fill="#263238"/>
<path d="M129.315 357.281L164.104 329.436L181.859 339.802L230.759 297.907" stroke="#8140FF" stroke-width="2.97" stroke-miterlimit="10"/>
<path d="M233.605 295.478L226.335 296.614L231.461 302.12L233.605 295.478Z" fill="#8140FF"/>
<g opacity="0.3">
<path d="M189.149 393.238H125.963C125.616 393.238 125.284 393.1 125.039 392.854C124.794 392.608 124.657 392.274 124.657 391.925C124.657 391.577 124.794 391.243 125.039 390.997C125.284 390.751 125.616 390.613 125.963 390.613H189.149C189.495 390.613 189.827 390.751 190.072 390.997C190.317 391.243 190.454 391.577 190.454 391.925C190.454 392.274 190.317 392.608 190.072 392.854C189.827 393.1 189.495 393.238 189.149 393.238Z" fill="black"/>
</g>
<g opacity="0.3">
<path d="M238.049 404.996H135.065C134.718 404.996 134.386 404.857 134.141 404.611C133.896 404.365 133.759 404.031 133.759 403.683C133.759 403.335 133.896 403.001 134.141 402.754C134.386 402.508 134.718 402.37 135.065 402.37H238.049C238.395 402.37 238.727 402.508 238.972 402.754C239.217 403.001 239.355 403.335 239.355 403.683C239.355 404.031 239.217 404.365 238.972 404.611C238.727 404.857 238.395 404.996 238.049 404.996Z" fill="black"/>
<path d="M238.049 411.638H125.924C125.578 411.638 125.245 411.5 125 411.254C124.756 411.008 124.618 410.674 124.618 410.326C124.618 409.977 124.756 409.643 125 409.397C125.245 409.151 125.578 409.013 125.924 409.013H238.049C238.395 409.013 238.727 409.151 238.972 409.397C239.217 409.643 239.355 409.977 239.355 410.326C239.355 410.674 239.217 411.008 238.972 411.254C238.727 411.5 238.395 411.638 238.049 411.638Z" fill="black"/>
<path d="M238.244 418.164H126.099C125.753 418.164 125.421 418.025 125.176 417.779C124.931 417.533 124.793 417.199 124.793 416.851C124.793 416.503 124.931 416.169 125.176 415.922C125.421 415.676 125.753 415.538 126.099 415.538H238.244C238.59 415.538 238.922 415.676 239.167 415.922C239.412 416.169 239.549 416.503 239.549 416.851C239.549 417.199 239.412 417.533 239.167 417.779C238.922 418.025 238.59 418.164 238.244 418.164Z" fill="black"/>
<path d="M220.06 424.767H126.255C125.911 424.747 125.588 424.592 125.355 424.336C125.122 424.08 124.997 423.743 125.008 423.396C125.013 423.044 125.154 422.708 125.402 422.459C125.649 422.21 125.983 422.068 126.333 422.063H220.138C220.486 422.068 220.818 422.211 221.062 422.46C221.307 422.71 221.444 423.046 221.443 423.396C221.452 423.58 221.422 423.764 221.355 423.935C221.288 424.107 221.186 424.262 221.056 424.392C220.925 424.521 220.769 424.622 220.598 424.686C220.426 424.751 220.243 424.779 220.06 424.767Z" fill="black"/>
</g>
<g opacity="0.3">
<path d="M238.049 436.583H135.065C134.717 436.578 134.385 436.436 134.14 436.186C133.896 435.937 133.759 435.601 133.759 435.251C133.759 435.078 133.793 434.908 133.858 434.748C133.924 434.589 134.02 434.444 134.141 434.323C134.263 434.201 134.406 434.104 134.565 434.038C134.723 433.972 134.893 433.938 135.065 433.938H238.049C238.22 433.938 238.39 433.972 238.548 434.038C238.707 434.104 238.851 434.201 238.972 434.323C239.093 434.444 239.19 434.589 239.255 434.748C239.321 434.908 239.355 435.078 239.355 435.251C239.355 435.601 239.218 435.937 238.973 436.186C238.729 436.436 238.397 436.578 238.049 436.583Z" fill="black"/>
<path d="M238.049 443.167H125.924C125.578 443.167 125.245 443.029 125 442.783C124.756 442.537 124.618 442.203 124.618 441.854C124.618 441.506 124.756 441.172 125 440.926C125.245 440.68 125.578 440.542 125.924 440.542H238.049C238.395 440.542 238.727 440.68 238.972 440.926C239.217 441.172 239.355 441.506 239.355 441.854C239.355 442.203 239.217 442.537 238.972 442.783C238.727 443.029 238.395 443.167 238.049 443.167Z" fill="black"/>
<path d="M238.244 449.751H126.099C125.753 449.751 125.421 449.613 125.176 449.367C124.931 449.121 124.793 448.787 124.793 448.439C124.793 448.09 124.931 447.756 125.176 447.51C125.421 447.264 125.753 447.126 126.099 447.126H238.244C238.59 447.126 238.922 447.264 239.167 447.51C239.412 447.756 239.549 448.09 239.549 448.439C239.549 448.787 239.412 449.121 239.167 449.367C238.922 449.613 238.59 449.751 238.244 449.751Z" fill="black"/>
<path d="M220.06 456.335H126.255C125.909 456.335 125.577 456.197 125.332 455.951C125.087 455.705 124.949 455.371 124.949 455.023C124.949 454.674 125.087 454.34 125.332 454.094C125.577 453.848 125.909 453.71 126.255 453.71H220.06C220.406 453.71 220.738 453.848 220.983 454.094C221.228 454.34 221.365 454.674 221.365 455.023C221.365 455.371 221.228 455.705 220.983 455.951C220.738 456.197 220.406 456.335 220.06 456.335Z" fill="black"/>
</g>
<g opacity="0.3">
<path d="M189.149 284.014H125.963C125.616 284.014 125.284 283.876 125.039 283.63C124.794 283.383 124.657 283.05 124.657 282.701C124.657 282.353 124.794 282.019 125.039 281.773C125.284 281.527 125.616 281.388 125.963 281.388H189.149C189.495 281.388 189.827 281.527 190.072 281.773C190.317 282.019 190.454 282.353 190.454 282.701C190.454 283.05 190.317 283.383 190.072 283.63C189.827 283.876 189.495 284.014 189.149 284.014Z" fill="black"/>
</g>
<path d="M534.644 152.922H388.88C385.156 152.922 382.137 155.957 382.137 159.702V404.702C382.137 408.446 385.156 411.482 388.88 411.482H534.644C538.369 411.482 541.388 408.446 541.388 404.702V159.702C541.388 155.957 538.369 152.922 534.644 152.922Z" fill="#8140FF"/>
<path d="M420.064 151.687H503.441C503.772 151.687 504.089 151.819 504.323 152.055C504.557 152.29 504.689 152.609 504.689 152.941V160.995H418.816V152.941C418.816 152.609 418.948 152.29 419.182 152.055C419.416 151.819 419.733 151.687 420.064 151.687Z" fill="#263238"/>
<path opacity="0.9" d="M535.093 160.995H388.432V403.369H535.093V160.995Z" fill="white"/>
<path d="M490.519 172.164H464.715L464.423 171.263C464.245 170.696 463.892 170.2 463.415 169.848C462.939 169.496 462.363 169.305 461.772 169.303C461.18 169.305 460.605 169.496 460.128 169.848C459.652 170.2 459.299 170.696 459.121 171.263L458.829 172.164H432.946C431.947 172.164 430.988 171.766 430.28 171.058C429.571 170.349 429.171 169.387 429.166 168.382V158.859C429.166 158.36 429.263 157.866 429.453 157.404C429.643 156.943 429.922 156.524 430.273 156.171C430.624 155.818 431.041 155.538 431.499 155.347C431.958 155.156 432.45 155.058 432.946 155.058H490.441C490.937 155.058 491.428 155.156 491.885 155.347C492.343 155.539 492.759 155.819 493.108 156.172C493.458 156.525 493.734 156.945 493.922 157.406C494.11 157.867 494.206 158.361 494.203 158.859V168.402C494.198 169.388 493.81 170.333 493.122 171.036C492.434 171.739 491.5 172.144 490.519 172.164ZM466.527 169.539H490.519C490.824 169.539 491.117 169.417 491.332 169.2C491.548 168.983 491.669 168.689 491.669 168.382V158.859C491.672 158.706 491.644 158.553 491.587 158.411C491.531 158.268 491.447 158.138 491.339 158.029C491.232 157.919 491.105 157.833 490.964 157.773C490.823 157.714 490.672 157.683 490.519 157.683H432.946C432.792 157.681 432.639 157.709 432.496 157.767C432.353 157.826 432.223 157.912 432.114 158.022C432.005 158.132 431.918 158.262 431.861 158.406C431.803 158.55 431.774 158.704 431.777 158.859V168.402C431.777 168.555 431.807 168.707 431.866 168.849C431.925 168.991 432.012 169.119 432.121 169.227C432.229 169.334 432.359 169.419 432.5 169.476C432.642 169.533 432.794 169.561 432.946 169.558H456.939C457.4 168.694 458.086 167.971 458.923 167.467C459.761 166.964 460.718 166.697 461.694 166.697C462.681 166.681 463.653 166.938 464.506 167.439C465.358 167.94 466.057 168.666 466.527 169.539Z" fill="#263238"/>
<g opacity="0.5">
<path d="M490.519 172.164H464.715L464.423 171.263C464.245 170.696 463.892 170.2 463.415 169.848C462.939 169.496 462.363 169.305 461.772 169.303C461.18 169.305 460.605 169.496 460.128 169.848C459.652 170.2 459.299 170.696 459.121 171.263L458.829 172.164H432.946C431.947 172.164 430.988 171.766 430.28 171.058C429.571 170.349 429.171 169.387 429.166 168.382V158.859C429.166 158.36 429.263 157.866 429.453 157.404C429.643 156.943 429.922 156.524 430.273 156.171C430.624 155.818 431.041 155.538 431.499 155.347C431.958 155.156 432.45 155.058 432.946 155.058H490.441C490.937 155.058 491.428 155.156 491.885 155.347C492.343 155.539 492.759 155.819 493.108 156.172C493.458 156.525 493.734 156.945 493.922 157.406C494.11 157.867 494.206 158.361 494.203 158.859V168.402C494.198 169.388 493.81 170.333 493.122 171.036C492.434 171.739 491.5 172.144 490.519 172.164ZM466.527 169.539H490.519C490.824 169.539 491.117 169.417 491.332 169.2C491.548 168.983 491.669 168.689 491.669 168.382V158.859C491.672 158.706 491.644 158.553 491.587 158.411C491.531 158.268 491.447 158.138 491.339 158.029C491.232 157.919 491.105 157.833 490.964 157.773C490.823 157.714 490.672 157.683 490.519 157.683H432.946C432.792 157.681 432.639 157.709 432.496 157.767C432.353 157.826 432.223 157.912 432.114 158.022C432.005 158.132 431.918 158.262 431.861 158.406C431.803 158.55 431.774 158.704 431.777 158.859V168.402C431.777 168.555 431.807 168.707 431.866 168.849C431.925 168.991 432.012 169.119 432.121 169.227C432.229 169.334 432.359 169.419 432.5 169.476C432.642 169.533 432.794 169.561 432.946 169.558H456.939C457.4 168.694 458.086 167.971 458.923 167.467C459.761 166.964 460.718 166.697 461.694 166.697C462.681 166.681 463.653 166.938 464.506 167.439C465.358 167.94 466.057 168.666 466.527 169.539Z" fill="white"/>
</g>
<path d="M485.822 153.51H437.682C436.617 153.51 435.753 154.378 435.753 155.449V157.291C435.753 158.363 436.617 159.231 437.682 159.231H485.822C486.888 159.231 487.752 158.363 487.752 157.291V155.449C487.752 154.378 486.888 153.51 485.822 153.51Z" fill="#263238"/>
<path opacity="0.2" d="M485.822 153.51H437.682C436.617 153.51 435.753 154.378 435.753 155.449V157.291C435.753 158.363 436.617 159.231 437.682 159.231H485.822C486.888 159.231 487.752 158.363 487.752 157.291V155.449C487.752 154.378 486.888 153.51 485.822 153.51Z" fill="white"/>
<path d="M523.461 364.033C526.991 348.992 517.726 333.921 502.767 330.371C487.807 326.821 472.817 336.136 469.286 351.177C465.755 366.218 475.02 381.289 489.98 384.839C504.94 388.389 519.93 379.073 523.461 364.033Z" fill="#8140FF"/>
<path opacity="0.3" d="M496.542 357.653H524.373C524.373 363.188 522.741 368.598 519.683 373.199C516.625 377.801 512.278 381.388 507.193 383.506C502.107 385.623 496.511 386.178 491.112 385.098C485.713 384.018 480.754 381.353 476.862 377.44C472.97 373.526 470.319 368.54 469.245 363.113C468.171 357.685 468.723 352.058 470.829 346.945C472.936 341.832 476.503 337.462 481.079 334.387C485.656 331.313 491.037 329.671 496.542 329.671V357.653Z" fill="white"/>
<path opacity="0.3" d="M496.542 357.653L511.569 381.168C507.929 383.515 503.796 384.977 499.496 385.438C495.197 385.9 490.85 385.347 486.8 383.825C482.749 382.304 479.107 379.854 476.163 376.67C473.218 373.487 471.052 369.658 469.835 365.486C468.619 361.314 468.386 356.915 469.155 352.637C469.924 348.359 471.674 344.32 474.266 340.841C476.858 337.361 480.22 334.536 484.087 332.591C487.954 330.645 492.218 329.632 496.542 329.632V357.653Z" fill="white"/>
<path opacity="0.3" d="M496.542 357.653L473.154 372.702C470.453 368.477 468.934 363.599 468.754 358.58C468.575 353.56 469.742 348.585 472.135 344.176C474.527 339.766 478.055 336.086 482.35 333.52C486.644 330.954 491.546 329.597 496.542 329.593V357.653Z" fill="white"/>
<g opacity="0.5">
<path d="M399.015 204.418V270.552H524.549V204.516L399.015 204.418ZM523.535 214.725H501.823V205.398H523.535V214.725ZM454.151 214.725H431.797V205.398H454.151V214.725ZM455.126 205.398H477.5V214.725H455.126V205.398ZM454.151 215.705V269.475H431.797V215.686L454.151 215.705ZM455.126 215.705H477.5V269.475H455.126V215.705ZM478.514 215.705H500.868V269.475H478.514V215.705ZM478.514 214.725V205.398H500.868V214.725H478.514ZM430.842 205.398V214.725H400.028V205.398H430.842ZM399.989 215.686H430.803V269.475H399.989V215.686ZM501.823 269.455V215.686H523.535V269.475L501.823 269.455Z" fill="black"/>
<path d="M438.91 224.935H447.973C448.319 224.935 448.651 224.796 448.896 224.55C449.141 224.304 449.279 223.97 449.279 223.622C449.279 223.274 449.141 222.94 448.896 222.693C448.651 222.447 448.319 222.309 447.973 222.309H438.91C438.564 222.309 438.232 222.447 437.987 222.693C437.742 222.94 437.604 223.274 437.604 223.622C437.604 223.97 437.742 224.304 437.987 224.55C438.232 224.796 438.564 224.935 438.91 224.935Z" fill="black"/>
<path d="M461.772 236.868H471.517C471.863 236.868 472.196 236.73 472.44 236.483C472.685 236.237 472.823 235.903 472.823 235.555C472.823 235.207 472.685 234.873 472.44 234.627C472.196 234.381 471.863 234.242 471.517 234.242H461.772C461.426 234.242 461.094 234.381 460.849 234.627C460.604 234.873 460.466 235.207 460.466 235.555C460.466 235.903 460.604 236.237 460.849 236.483C461.094 236.73 461.426 236.868 461.772 236.868Z" fill="black"/>
<path d="M472.024 258.109H461.772C461.426 258.109 461.094 258.248 460.849 258.494C460.604 258.74 460.466 259.074 460.466 259.422C460.466 259.77 460.604 260.104 460.849 260.351C461.094 260.597 461.426 260.735 461.772 260.735H472.024C472.37 260.735 472.702 260.597 472.947 260.351C473.192 260.104 473.33 259.77 473.33 259.422C473.33 259.074 473.192 258.74 472.947 258.494C472.702 258.248 472.37 258.109 472.024 258.109Z" fill="black"/>
<path d="M494.788 246.176H483.932C483.586 246.176 483.253 246.314 483.009 246.56C482.764 246.807 482.626 247.14 482.626 247.489C482.626 247.837 482.764 248.171 483.009 248.417C483.253 248.663 483.586 248.802 483.932 248.802H494.788C495.134 248.802 495.466 248.663 495.711 248.417C495.956 248.171 496.094 247.837 496.094 247.489C496.094 247.14 495.956 246.807 495.711 246.56C495.466 246.314 495.134 246.176 494.788 246.176Z" fill="black"/>
<path d="M518.175 222.309H507.203C506.856 222.309 506.524 222.447 506.279 222.693C506.034 222.94 505.897 223.274 505.897 223.622C505.897 223.97 506.034 224.304 506.279 224.55C506.524 224.796 506.856 224.935 507.203 224.935H518.175C518.522 224.935 518.854 224.796 519.099 224.55C519.344 224.304 519.481 223.97 519.481 223.622C519.481 223.274 519.344 222.94 519.099 222.693C518.854 222.447 518.522 222.309 518.175 222.309Z" fill="black"/>
<path d="M516.753 258.109H507.183C506.837 258.109 506.505 258.248 506.26 258.494C506.015 258.74 505.877 259.074 505.877 259.422C505.877 259.77 506.015 260.104 506.26 260.351C506.505 260.597 506.837 260.735 507.183 260.735H516.753C517.099 260.735 517.431 260.597 517.676 260.351C517.921 260.104 518.059 259.77 518.059 259.422C518.059 259.074 517.921 258.74 517.676 258.494C517.431 258.248 517.099 258.109 516.753 258.109Z" fill="black"/>
<path d="M438.91 248.802H446.706C447.053 248.802 447.385 248.663 447.63 248.417C447.875 248.171 448.012 247.837 448.012 247.489C448.012 247.14 447.875 246.807 447.63 246.56C447.385 246.314 447.053 246.176 446.706 246.176H438.91C438.564 246.176 438.232 246.314 437.987 246.56C437.742 246.807 437.604 247.14 437.604 247.489C437.604 247.837 437.742 248.171 437.987 248.417C438.232 248.663 438.564 248.802 438.91 248.802Z" fill="black"/>
<path d="M447.973 258.109H438.91C438.564 258.109 438.232 258.248 437.987 258.494C437.742 258.74 437.604 259.074 437.604 259.422C437.604 259.77 437.742 260.104 437.987 260.351C438.232 260.597 438.564 260.735 438.91 260.735H447.973C448.319 260.735 448.651 260.597 448.896 260.351C449.141 260.104 449.279 259.77 449.279 259.422C449.279 259.074 449.141 258.74 448.896 258.494C448.651 258.248 448.319 258.109 447.973 258.109Z" fill="black"/>
<path d="M404.706 224.935H425.404C425.75 224.935 426.082 224.796 426.327 224.55C426.572 224.304 426.71 223.97 426.71 223.622C426.71 223.274 426.572 222.94 426.327 222.693C426.082 222.447 425.75 222.309 425.404 222.309H404.706C404.359 222.309 404.027 222.447 403.782 222.693C403.538 222.94 403.4 223.274 403.4 223.622C403.4 223.97 403.538 224.304 403.782 224.55C404.027 224.796 404.359 224.935 404.706 224.935Z" fill="black"/>
<path d="M404.706 236.868H418.485C418.831 236.868 419.163 236.73 419.408 236.483C419.653 236.237 419.791 235.903 419.791 235.555C419.791 235.207 419.653 234.873 419.408 234.627C419.163 234.381 418.831 234.242 418.485 234.242H404.706C404.359 234.242 404.027 234.381 403.782 234.627C403.538 234.873 403.4 235.207 403.4 235.555C403.4 235.903 403.538 236.237 403.782 236.483C404.027 236.73 404.359 236.868 404.706 236.868Z" fill="black"/>
<path d="M425.404 246.176H404.706C404.359 246.176 404.027 246.314 403.782 246.56C403.538 246.807 403.4 247.14 403.4 247.489C403.4 247.837 403.538 248.171 403.782 248.417C404.027 248.663 404.359 248.802 404.706 248.802H425.404C425.75 248.802 426.082 248.663 426.327 248.417C426.572 248.171 426.71 247.837 426.71 247.489C426.71 247.14 426.572 246.807 426.327 246.56C426.082 246.314 425.75 246.176 425.404 246.176Z" fill="black"/>
<path d="M415.055 258.109H404.706C404.359 258.109 404.027 258.248 403.782 258.494C403.538 258.74 403.4 259.074 403.4 259.422C403.4 259.77 403.538 260.104 403.782 260.351C404.027 260.597 404.359 260.735 404.706 260.735H415.055C415.401 260.735 415.733 260.597 415.978 260.351C416.223 260.104 416.361 259.77 416.361 259.422C416.361 259.074 416.223 258.74 415.978 258.494C415.733 258.248 415.401 258.109 415.055 258.109Z" fill="black"/>
</g>
<g opacity="0.5">
<path d="M449.298 190.564H400.321C399.974 190.564 399.642 190.426 399.397 190.18C399.152 189.933 399.015 189.6 399.015 189.251C399.015 189.079 399.048 188.908 399.114 188.749C399.18 188.59 399.276 188.445 399.397 188.323C399.518 188.201 399.663 188.104 399.821 188.038C399.979 187.972 400.149 187.938 400.321 187.938H449.298C449.47 187.938 449.64 187.972 449.798 188.038C449.956 188.104 450.101 188.201 450.222 188.323C450.343 188.445 450.439 188.59 450.505 188.749C450.571 188.908 450.604 189.079 450.604 189.251C450.604 189.424 450.571 189.594 450.505 189.754C450.439 189.913 450.343 190.058 450.222 190.18C450.101 190.302 449.956 190.398 449.798 190.464C449.64 190.53 449.47 190.564 449.298 190.564Z" fill="black"/>
</g>
<g opacity="0.5">
<path d="M432.108 198.05H400.321C399.974 198.05 399.642 197.911 399.397 197.665C399.152 197.419 399.015 197.085 399.015 196.737C399.015 196.389 399.152 196.055 399.397 195.808C399.642 195.562 399.974 195.424 400.321 195.424H432.108C432.455 195.424 432.787 195.562 433.032 195.808C433.277 196.055 433.414 196.389 433.414 196.737C433.414 197.085 433.277 197.419 433.032 197.665C432.787 197.911 432.455 198.05 432.108 198.05Z" fill="black"/>
</g>
<g opacity="0.5">
<path d="M463.507 281.859H400.321C399.974 281.859 399.642 281.72 399.397 281.474C399.152 281.228 399.015 280.894 399.015 280.546C399.015 280.198 399.152 279.864 399.397 279.617C399.642 279.371 399.974 279.233 400.321 279.233H463.507C463.853 279.233 464.185 279.371 464.43 279.617C464.675 279.864 464.812 280.198 464.812 280.546C464.812 280.894 464.675 281.228 464.43 281.474C464.185 281.72 463.853 281.859 463.507 281.859Z" fill="black"/>
</g>
<path d="M406.811 333.982H398.995V341.84H406.811V333.982Z" fill="#8140FF"/>
<g opacity="0.5">
<path d="M451.247 339.234H412.502C412.155 339.234 411.823 339.096 411.578 338.849C411.333 338.603 411.196 338.269 411.196 337.921C411.196 337.573 411.333 337.239 411.578 336.993C411.823 336.746 412.155 336.608 412.502 336.608H451.247C451.594 336.608 451.926 336.746 452.171 336.993C452.416 337.239 452.553 337.573 452.553 337.921C452.553 338.269 452.416 338.603 452.171 338.849C451.926 339.096 451.594 339.234 451.247 339.234Z" fill="black"/>
</g>
<path d="M406.811 347.15H398.995V355.008H406.811V347.15Z" fill="#8140FF"/>
<g opacity="0.5">
<path d="M451.248 352.402H412.502C412.316 352.425 412.127 352.407 411.948 352.351C411.768 352.295 411.603 352.202 411.463 352.077C411.322 351.952 411.21 351.798 411.133 351.626C411.056 351.454 411.016 351.268 411.016 351.079C411.016 350.89 411.056 350.704 411.133 350.532C411.21 350.36 411.322 350.206 411.463 350.081C411.603 349.956 411.768 349.863 411.948 349.807C412.127 349.751 412.316 349.734 412.502 349.756H451.248C451.569 349.796 451.865 349.952 452.079 350.196C452.294 350.439 452.412 350.754 452.412 351.079C452.412 351.405 452.294 351.719 452.079 351.962C451.865 352.206 451.569 352.362 451.248 352.402Z" fill="black"/>
</g>
<path d="M406.811 360.299H398.995V368.157H406.811V360.299Z" fill="#8140FF"/>
<g opacity="0.5">
<path d="M451.247 365.55H412.502C412.155 365.55 411.823 365.412 411.578 365.166C411.333 364.92 411.196 364.586 411.196 364.237C411.196 363.889 411.333 363.555 411.578 363.309C411.823 363.063 412.155 362.925 412.502 362.925H451.247C451.594 362.925 451.926 363.063 452.171 363.309C452.416 363.555 452.553 363.889 452.553 364.237C452.553 364.586 452.416 364.92 452.171 365.166C451.926 365.412 451.594 365.55 451.247 365.55Z" fill="black"/>
</g>
<path d="M406.811 373.467H398.995V381.325H406.811V373.467Z" fill="#8140FF"/>
<g opacity="0.5">
<path d="M451.248 378.718H412.502C412.316 378.741 412.127 378.724 411.948 378.668C411.768 378.612 411.603 378.518 411.463 378.393C411.322 378.268 411.21 378.115 411.133 377.943C411.056 377.771 411.016 377.584 411.016 377.396C411.016 377.207 411.056 377.021 411.133 376.849C411.21 376.677 411.322 376.523 411.463 376.398C411.603 376.273 411.768 376.179 411.948 376.123C412.127 376.067 412.316 376.05 412.502 376.073H451.248C451.569 376.112 451.865 376.269 452.079 376.512C452.294 376.756 452.412 377.07 452.412 377.396C452.412 377.721 452.294 378.035 452.079 378.279C451.865 378.523 451.569 378.679 451.248 378.718Z" fill="black"/>
</g>
<g opacity="0.5">
<path d="M522.775 293.616H409.344C408.998 293.616 408.666 293.478 408.421 293.231C408.176 292.985 408.039 292.651 408.039 292.303C408.039 291.955 408.176 291.621 408.421 291.375C408.666 291.129 408.998 290.99 409.344 290.99H522.775C523.121 290.99 523.454 291.129 523.698 291.375C523.943 291.621 524.081 291.955 524.081 292.303C524.081 292.651 523.943 292.985 523.698 293.231C523.454 293.478 523.121 293.616 522.775 293.616Z" fill="black"/>
<path d="M522.931 300.2H400.321C399.974 300.2 399.642 300.062 399.397 299.815C399.152 299.569 399.015 299.235 399.015 298.887C399.015 298.539 399.152 298.205 399.397 297.959C399.642 297.713 399.974 297.574 400.321 297.574H522.931C523.277 297.574 523.609 297.713 523.854 297.959C524.099 298.205 524.237 298.539 524.237 298.887C524.237 299.235 524.099 299.569 523.854 299.815C523.609 300.062 523.277 300.2 522.931 300.2Z" fill="black"/>
<path d="M523.067 306.804H400.457C400.111 306.804 399.779 306.665 399.534 306.419C399.289 306.173 399.151 305.839 399.151 305.491C399.151 305.142 399.289 304.808 399.534 304.562C399.779 304.316 400.111 304.178 400.457 304.178H523.067C523.414 304.178 523.746 304.316 523.991 304.562C524.236 304.808 524.373 305.142 524.373 305.491C524.373 305.839 524.236 306.173 523.991 306.419C523.746 306.665 523.414 306.804 523.067 306.804Z" fill="black"/>
<path d="M504.884 313.388H400.613C400.267 313.388 399.935 313.249 399.69 313.003C399.445 312.757 399.307 312.423 399.307 312.075C399.307 311.727 399.445 311.393 399.69 311.146C399.935 310.9 400.267 310.762 400.613 310.762H504.884C505.23 310.762 505.562 310.9 505.807 311.146C506.052 311.393 506.189 311.727 506.189 312.075C506.189 312.423 506.052 312.757 505.807 313.003C505.562 313.249 505.23 313.388 504.884 313.388Z" fill="black"/>
</g>
<path opacity="0.3" d="M406.811 347.15H398.995V355.008H406.811V347.15Z" fill="white"/>
<path opacity="0.5" d="M406.811 360.299H398.995V368.157H406.811V360.299Z" fill="white"/>
<path opacity="0.7" d="M406.811 373.467H398.995V381.325H406.811V373.467Z" fill="white"/>
<path d="M532.891 444.951C532.891 444.951 526.693 431.234 533.787 417.889C540.881 404.545 542.947 401.292 538.426 398.529C533.904 395.766 531.818 409.287 531.818 409.287C529.573 403.187 529.34 396.523 531.156 390.28C534.294 380.482 536.282 364.806 531.975 363.023C527.667 361.239 531.156 382.775 527.414 390.084C525.52 384.947 524.295 379.586 523.769 374.133C523.262 366.295 524.062 353.872 520.67 350.619C517.279 347.366 515.096 349.639 518.429 366.863C520.438 377.197 521.547 387.688 521.742 398.216C521.742 398.216 514.375 375.603 509.425 374.937C504.474 374.27 504.474 381.599 508.723 387.948C512.972 394.297 521.119 405.682 522.366 411.462C522.366 411.462 514.278 394.453 506.988 399.705C499.699 404.957 513.323 415.205 519.384 418.908C525.445 422.612 529.675 445.891 529.675 445.891L532.891 444.951Z" fill="#8140FF"/>
<path opacity="0.2" d="M532.891 444.951C532.891 444.951 526.693 431.234 533.787 417.889C540.881 404.545 542.947 401.292 538.426 398.529C533.904 395.766 531.818 409.287 531.818 409.287C529.573 403.187 529.34 396.523 531.156 390.28C534.294 380.482 536.282 364.806 531.975 363.023C527.667 361.239 531.156 382.775 527.414 390.084C525.52 384.947 524.295 379.586 523.769 374.133C523.262 366.295 524.062 353.872 520.67 350.619C517.279 347.366 515.096 349.639 518.429 366.863C520.438 377.197 521.547 387.688 521.742 398.216C521.742 398.216 514.375 375.603 509.425 374.937C504.474 374.27 504.474 381.599 508.723 387.948C512.972 394.297 521.119 405.682 522.366 411.462C522.366 411.462 514.278 394.453 506.988 399.705C499.699 404.957 513.323 415.205 519.384 418.908C525.445 422.612 529.675 445.891 529.675 445.891L532.891 444.951Z" fill="black"/>
<path d="M527.999 450.476C527.999 450.476 534.04 436.76 526.79 423.435C519.54 410.11 517.435 406.975 521.918 404.153C526.4 401.331 528.661 414.793 528.661 414.793C530.83 408.668 530.981 402.003 529.09 395.786C525.835 386.106 523.672 370.312 527.94 368.548C532.208 366.785 528.993 388.281 532.813 395.531C534.656 390.375 535.822 385 536.282 379.541C536.711 371.703 535.755 359.28 539.108 356.027C542.46 352.774 544.662 354.949 541.544 372.232C539.653 382.576 538.668 393.067 538.601 403.585C538.601 403.585 545.695 380.874 550.646 380.07C555.596 379.267 555.655 386.654 551.503 393.062C547.352 399.47 539.303 410.972 538.036 416.851C538.036 416.851 545.832 399.724 553.277 404.819C560.722 409.914 547.118 420.495 541.096 424.199C535.073 427.902 531.136 451.338 531.136 451.338L527.999 450.476Z" fill="#8140FF"/>
<path d="M555.888 440.698H505.917L509.951 476.656H551.854L555.888 440.698Z" fill="#263238"/>
<path d="M254.089 132.327H291.665C294.732 132.327 297.674 133.551 299.844 135.729C302.015 137.908 303.237 140.864 303.242 143.947V176.828C303.242 179.915 302.022 182.876 299.851 185.059C297.68 187.241 294.735 188.468 291.665 188.468H280.692L284.59 202.792L272.896 188.468H254.069C252.55 188.468 251.045 188.166 249.642 187.581C248.238 186.996 246.963 186.138 245.89 185.057C244.816 183.976 243.965 182.693 243.386 181.281C242.806 179.869 242.509 178.356 242.512 176.828V143.947C242.512 142.42 242.811 140.907 243.393 139.496C243.975 138.085 244.828 136.803 245.904 135.724C246.979 134.644 248.255 133.789 249.66 133.206C251.064 132.623 252.569 132.325 254.089 132.327Z" fill="#8140FF"/>
<path opacity="0.7" d="M254.089 132.327H291.665C294.732 132.327 297.674 133.551 299.844 135.729C302.015 137.908 303.237 140.864 303.242 143.947V176.828C303.242 179.915 302.022 182.876 299.851 185.059C297.68 187.241 294.735 188.468 291.665 188.468H280.692L284.59 202.792L272.896 188.468H254.069C252.55 188.468 251.045 188.166 249.642 187.581C248.238 186.996 246.963 186.138 245.89 185.057C244.816 183.976 243.965 182.693 243.386 181.281C242.806 179.869 242.509 178.356 242.512 176.828V143.947C242.512 142.42 242.811 140.907 243.393 139.496C243.975 138.085 244.828 136.803 245.904 135.724C246.979 134.644 248.255 133.789 249.66 133.206C251.064 132.623 252.569 132.325 254.089 132.327Z" fill="white"/>
<path opacity="0.7" d="M267.205 167.559C273.674 167.559 278.918 162.287 278.918 155.783C278.918 149.279 273.674 144.006 267.205 144.006C260.736 144.006 255.492 149.279 255.492 155.783C255.492 162.287 260.736 167.559 267.205 167.559Z" fill="white"/>
<path d="M267.205 167.559C273.674 167.559 278.918 162.287 278.918 155.783C278.918 149.279 273.674 144.006 267.205 144.006C260.736 144.006 255.492 149.279 255.492 155.783C255.492 162.287 260.736 167.559 267.205 167.559Z" stroke="#8140FF" stroke-width="2.6" stroke-miterlimit="10"/>
<path d="M275.488 164.091L288.819 177.514" stroke="#8140FF" stroke-width="2.6" stroke-miterlimit="10"/>
<path d="M280.068 168.716L290.262 178.964" stroke="#8140FF" stroke-width="3.89" stroke-linecap="round" stroke-linejoin="round"/>
<path d="M269.018 150.472C269.018 150.814 268.951 151.152 268.82 151.467C268.69 151.782 268.499 152.068 268.258 152.308C268.017 152.549 267.731 152.739 267.416 152.868C267.102 152.996 266.765 153.061 266.426 153.059C265.744 153.059 265.089 152.786 264.607 152.301C264.124 151.816 263.853 151.158 263.853 150.472C263.851 150.131 263.915 149.792 264.043 149.476C264.172 149.16 264.361 148.873 264.6 148.631C264.839 148.388 265.123 148.196 265.437 148.065C265.75 147.934 266.086 147.866 266.426 147.866C266.767 147.863 267.105 147.929 267.421 148.059C267.737 148.189 268.023 148.381 268.264 148.624C268.506 148.866 268.697 149.154 268.826 149.472C268.955 149.789 269.021 150.129 269.018 150.472Z" fill="white"/>
<path d="M272.896 152.373C272.899 152.545 272.868 152.715 272.804 152.874C272.741 153.033 272.646 153.178 272.527 153.3C272.407 153.422 272.264 153.52 272.107 153.586C271.949 153.652 271.781 153.686 271.61 153.686C271.439 153.686 271.271 153.652 271.113 153.586C270.956 153.52 270.813 153.422 270.694 153.3C270.574 153.178 270.479 153.033 270.416 152.874C270.352 152.715 270.321 152.545 270.324 152.373C270.324 152.03 270.459 151.701 270.7 151.459C270.942 151.216 271.269 151.08 271.61 151.08C271.951 151.08 272.278 151.216 272.52 151.459C272.761 151.701 272.896 152.03 272.896 152.373Z" fill="white"/>
<path d="M377.712 374.153H182.912V405.681H377.712V374.153Z" fill="#8140FF"/>
<path opacity="0.8" d="M377.712 374.153H182.912V405.681H377.712V374.153Z" fill="white"/>
<path opacity="0.2" d="M377.713 382.481V379.914L244.344 380.991L377.713 382.481Z" fill="black"/>
<path opacity="0.2" d="M377.713 393.532V391.553L317.84 393.709L377.713 393.532Z" fill="black"/>
<path opacity="0.2" d="M377.713 400.92V398.353L281.18 399.842L377.713 400.92Z" fill="black"/>
<path opacity="0.2" d="M226.472 374.153L223.646 397.667L226.978 394.101C228.108 398.392 230.209 402.362 233.118 405.701C235.19 402.944 236.845 399.893 238.029 396.648L329.008 395.609L238.887 393.65C239.168 392.363 239.312 391.049 239.315 389.731C239.311 388.633 239.207 387.537 239.003 386.458L372.528 386.165L238.711 385.106C238.244 383.337 237.591 381.622 236.762 379.992C238.677 378.26 241.164 377.303 243.74 377.307H377.771V374.153H226.472Z" fill="black"/>
<path d="M229.473 389.731C229.483 393.509 230.982 397.13 233.641 399.8C236.3 402.47 239.903 403.972 243.661 403.977H379.973C380.252 403.977 380.52 404.088 380.717 404.287C380.915 404.485 381.026 404.754 381.026 405.035V406.152C381.026 406.432 380.915 406.702 380.717 406.9C380.52 407.098 380.252 407.21 379.973 407.21H178.624C176.328 407.205 174.056 406.744 171.938 405.854C169.82 404.965 167.897 403.663 166.28 402.025C164.663 400.386 163.384 398.443 162.516 396.307C161.647 394.17 161.207 391.882 161.22 389.574C161.337 384.905 163.274 380.469 166.613 377.221C169.952 373.974 174.427 372.175 179.072 372.213H379.973C380.252 372.213 380.52 372.324 380.717 372.523C380.915 372.721 381.026 372.99 381.026 373.271V374.407C381.026 374.688 380.915 374.957 380.717 375.156C380.52 375.354 380.252 375.466 379.973 375.466H244.09C240.285 375.459 236.628 376.946 233.898 379.611C231.167 382.276 229.58 385.907 229.473 389.731Z" fill="#8140FF"/>
<path opacity="0.4" d="M229.473 389.731C229.483 393.509 230.982 397.13 233.641 399.8C236.3 402.47 239.903 403.972 243.661 403.977H379.973C380.252 403.977 380.52 404.088 380.717 404.287C380.915 404.485 381.026 404.754 381.026 405.035V406.152C381.026 406.432 380.915 406.702 380.717 406.9C380.52 407.098 380.252 407.21 379.973 407.21H178.624C176.328 407.205 174.056 406.744 171.938 405.854C169.82 404.965 167.897 403.663 166.28 402.025C164.663 400.386 163.384 398.443 162.516 396.307C161.647 394.17 161.207 391.882 161.22 389.574C161.337 384.905 163.274 380.469 166.613 377.221C169.952 373.974 174.427 372.175 179.072 372.213H379.973C380.252 372.213 380.52 372.324 380.717 372.523C380.915 372.721 381.026 372.99 381.026 373.271V374.407C381.026 374.688 380.915 374.957 380.717 375.156C380.52 375.354 380.252 375.466 379.973 375.466H244.09C240.285 375.459 236.628 376.946 233.898 379.611C231.167 382.276 229.58 385.907 229.473 389.731Z" fill="white"/>
<path d="M229.473 389.731C229.483 393.509 230.982 397.13 233.641 399.8C236.301 402.47 239.904 403.972 243.662 403.977H379.973C380.252 403.977 380.52 404.088 380.717 404.287C380.915 404.485 381.026 404.754 381.026 405.035V406.152C381.026 406.432 380.915 406.702 380.717 406.9C380.52 407.098 380.252 407.21 379.973 407.21H242.882C240.586 407.205 238.314 406.744 236.196 405.854C234.078 404.965 232.155 403.663 230.538 402.025C228.922 400.386 227.642 398.443 226.774 396.307C225.905 394.17 225.465 391.882 225.478 389.574C225.595 384.905 227.532 380.469 230.871 377.221C234.211 373.974 238.685 372.175 243.33 372.213H379.973C380.252 372.213 380.52 372.324 380.717 372.523C380.915 372.721 381.026 372.99 381.026 373.271V374.407C381.026 374.688 380.915 374.957 380.717 375.156C380.52 375.354 380.252 375.466 379.973 375.466H244.09C240.285 375.459 236.628 376.946 233.898 379.611C231.167 382.276 229.58 385.907 229.473 389.731Z" fill="#8140FF"/>
<path d="M255.141 381.227V393.866L259.702 389.3L264.106 393.728V381.227H255.141Z" fill="#263238"/>
<path opacity="0.6" d="M229.473 389.731C229.483 393.509 230.982 397.13 233.641 399.8C236.301 402.47 239.904 403.972 243.662 403.977H379.973C380.252 403.977 380.52 404.088 380.717 404.287C380.915 404.485 381.026 404.754 381.026 405.035V406.152C381.026 406.432 380.915 406.702 380.717 406.9C380.52 407.098 380.252 407.21 379.973 407.21H242.882C240.586 407.205 238.314 406.744 236.196 405.854C234.078 404.965 232.155 403.663 230.538 402.025C228.922 400.386 227.642 398.443 226.774 396.307C225.905 394.17 225.465 391.882 225.478 389.574C225.595 384.905 227.532 380.469 230.871 377.221C234.211 373.974 238.685 372.175 243.33 372.213H379.973C380.252 372.213 380.52 372.324 380.717 372.523C380.915 372.721 381.026 372.99 381.026 373.271V374.407C381.026 374.688 380.915 374.957 380.717 375.156C380.52 375.354 380.252 375.466 379.973 375.466H244.09C240.285 375.459 236.628 376.946 233.898 379.611C231.167 382.276 229.58 385.907 229.473 389.731Z" fill="white"/>
<path d="M387.126 443.598H192.325V475.127H387.126V443.598Z" fill="#8140FF"/>
<path opacity="0.7" d="M387.126 443.598H192.325V475.127H387.126V443.598Z" fill="white"/>
<path opacity="0.2" d="M387.126 451.926V449.359L253.738 450.437L387.126 451.926Z" fill="black"/>
<path opacity="0.2" d="M387.126 462.978V460.999L327.253 463.155L387.126 462.978Z" fill="black"/>
<path opacity="0.2" d="M387.126 470.365V467.818L290.574 469.288L387.126 470.365Z" fill="black"/>
<path opacity="0.2" d="M235.885 443.618L233.059 467.132L236.392 463.546C237.518 467.835 239.613 471.804 242.512 475.147C244.597 472.402 246.259 469.356 247.443 466.113L338.402 465.055L248.281 463.096C248.57 461.809 248.72 460.495 248.729 459.177C248.725 458.079 248.62 456.983 248.417 455.904L381.903 455.571L248.105 454.513C247.639 452.743 246.985 451.029 246.156 449.399C248.075 447.671 250.559 446.715 253.134 446.714H387.146V443.618H235.885Z" fill="black"/>
<path d="M238.887 459.177C238.892 462.958 240.388 466.584 243.048 469.258C245.708 471.932 249.314 473.437 253.075 473.442H389.387C389.663 473.442 389.928 473.551 390.124 473.745C390.321 473.939 390.434 474.203 390.439 474.48V475.617C390.434 475.894 390.321 476.158 390.124 476.353C389.928 476.547 389.663 476.656 389.387 476.656H177.318C175.021 476.656 172.747 476.199 170.626 475.311C168.506 474.423 166.581 473.121 164.963 471.482C163.345 469.842 162.066 467.897 161.2 465.758C160.333 463.619 159.896 461.329 159.914 459.02C160.026 454.347 161.961 449.906 165.301 446.654C168.641 443.403 173.118 441.601 177.767 441.639H389.387C389.666 441.639 389.934 441.75 390.131 441.949C390.329 442.147 390.439 442.416 390.439 442.697V443.833C390.434 444.111 390.321 444.375 390.124 444.569C389.928 444.763 389.663 444.872 389.387 444.872H253.485C249.675 444.866 246.014 446.359 243.286 449.033C240.557 451.706 238.979 455.347 238.887 459.177Z" fill="#263238"/>
<path opacity="0.2" d="M238.887 459.177C238.892 462.958 240.388 466.584 243.048 469.258C245.708 471.932 249.314 473.437 253.075 473.442H389.387C389.663 473.442 389.928 473.551 390.124 473.745C390.321 473.939 390.434 474.203 390.439 474.48V475.617C390.434 475.894 390.321 476.158 390.124 476.353C389.928 476.547 389.663 476.656 389.387 476.656H177.318C175.021 476.656 172.747 476.199 170.626 475.311C168.506 474.423 166.581 473.121 164.963 471.482C163.345 469.842 162.066 467.897 161.2 465.758C160.333 463.619 159.896 461.329 159.914 459.02C160.026 454.347 161.961 449.906 165.301 446.654C168.641 443.403 173.118 441.601 177.767 441.639H389.387C389.666 441.639 389.934 441.75 390.131 441.949C390.329 442.147 390.439 442.416 390.439 442.697V443.833C390.434 444.111 390.321 444.375 390.124 444.569C389.928 444.763 389.663 444.872 389.387 444.872H253.485C249.675 444.866 246.014 446.359 243.286 449.033C240.557 451.706 238.979 455.347 238.887 459.177Z" fill="white"/>
<path d="M238.887 459.177C238.892 462.958 240.388 466.584 243.048 469.258C245.708 471.932 249.314 473.437 253.075 473.442H389.387C389.663 473.442 389.927 473.551 390.124 473.745C390.321 473.939 390.434 474.203 390.439 474.48V475.617C390.434 475.894 390.321 476.158 390.124 476.353C389.927 476.547 389.663 476.656 389.387 476.656H252.296C249.999 476.656 247.724 476.199 245.603 475.311C243.483 474.423 241.558 473.121 239.94 471.482C238.322 469.842 237.043 467.897 236.177 465.758C235.31 463.619 234.873 461.329 234.891 459.02C235.004 454.347 236.938 449.906 240.278 446.654C243.618 443.403 248.095 441.601 252.744 441.639H389.387C389.666 441.639 389.934 441.75 390.131 441.949C390.328 442.147 390.439 442.416 390.439 442.697V443.833C390.434 444.111 390.321 444.375 390.124 444.569C389.927 444.763 389.663 444.872 389.387 444.872H253.485C249.675 444.866 246.014 446.359 243.285 449.033C240.557 451.706 238.978 455.347 238.887 459.177Z" fill="#263238"/>
<path d="M253.738 455.179V467.818L258.298 463.233L262.703 467.661V455.179H253.738Z" fill="#8140FF"/>
<path opacity="0.4" d="M238.887 459.177C238.892 462.958 240.388 466.584 243.048 469.258C245.708 471.932 249.314 473.437 253.075 473.442H389.387C389.663 473.442 389.927 473.551 390.124 473.745C390.321 473.939 390.434 474.203 390.439 474.48V475.617C390.434 475.894 390.321 476.158 390.124 476.353C389.927 476.547 389.663 476.656 389.387 476.656H252.296C249.999 476.656 247.724 476.199 245.603 475.311C243.483 474.423 241.558 473.121 239.94 471.482C238.322 469.842 237.043 467.897 236.177 465.758C235.31 463.619 234.873 461.329 234.891 459.02C235.004 454.347 236.938 449.906 240.278 446.654C243.618 443.403 248.095 441.601 252.744 441.639H389.387C389.666 441.639 389.934 441.75 390.131 441.949C390.328 442.147 390.439 442.416 390.439 442.697V443.833C390.434 444.111 390.321 444.375 390.124 444.569C389.927 444.763 389.663 444.872 389.387 444.872H253.485C249.675 444.866 246.014 446.359 243.285 449.033C240.557 451.706 238.978 455.347 238.887 459.177Z" fill="white"/>
<path d="M174.785 440.365H246.955V408.895H174.785V440.365Z" fill="#8140FF"/>
<path opacity="0.8" d="M174.785 440.365H246.955V408.895H174.785V440.365Z" fill="white"/>
<path opacity="0.2" d="M241.167 411.952H174.785V408.875H241.108L241.167 411.952Z" fill="black"/>
<path opacity="0.2" d="M241.187 414.636L181.275 415.93L241.187 417.203V414.636Z" fill="black"/>
<path opacity="0.2" d="M241.186 426.276L177.747 427.354L241.186 428.255V426.276Z" fill="black"/>
<path opacity="0.2" d="M241.187 433.076L178.312 434.369L241.187 435.643V433.076Z" fill="black"/>
<path opacity="0.2" d="M174.785 419.124L235.593 420.966L174.785 422.239V419.124Z" fill="black"/>
<path d="M335.887 424.454C335.887 426.326 335.52 428.18 334.807 429.91C334.094 431.639 333.048 433.211 331.73 434.534C330.413 435.857 328.848 436.906 327.127 437.621C325.406 438.335 323.561 438.702 321.699 438.699H171.471C171.192 438.699 170.924 438.811 170.727 439.009C170.53 439.208 170.419 439.477 170.419 439.758V440.894C170.424 441.171 170.537 441.435 170.734 441.63C170.931 441.824 171.195 441.933 171.471 441.933H322.478C324.775 441.933 327.05 441.476 329.17 440.588C331.291 439.7 333.216 438.398 334.834 436.759C336.451 435.12 337.731 433.174 338.597 431.035C339.464 428.897 339.901 426.606 339.883 424.297C339.77 419.624 337.836 415.183 334.496 411.931C331.156 408.68 326.679 406.878 322.03 406.916H171.471C171.333 406.916 171.196 406.943 171.068 406.996C170.941 407.05 170.825 407.128 170.727 407.226C170.629 407.324 170.552 407.441 170.499 407.569C170.446 407.697 170.419 407.835 170.419 407.974V409.111C170.424 409.388 170.537 409.652 170.734 409.846C170.931 410.04 171.195 410.149 171.471 410.149H321.27C325.082 410.143 328.745 411.636 331.476 414.309C334.208 416.982 335.791 420.623 335.887 424.454Z" fill="#263238"/>
<path opacity="0.4" d="M335.887 424.454C335.887 426.326 335.52 428.18 334.807 429.91C334.094 431.639 333.048 433.211 331.73 434.534C330.413 435.857 328.848 436.906 327.127 437.621C325.406 438.335 323.561 438.702 321.699 438.699H171.471C171.192 438.699 170.924 438.811 170.727 439.009C170.53 439.208 170.419 439.477 170.419 439.758V440.894C170.424 441.171 170.537 441.435 170.734 441.63C170.931 441.824 171.195 441.933 171.471 441.933H322.478C324.775 441.933 327.05 441.476 329.17 440.588C331.291 439.7 333.216 438.398 334.834 436.759C336.451 435.12 337.731 433.174 338.597 431.035C339.464 428.897 339.901 426.606 339.883 424.297C339.77 419.624 337.836 415.183 334.496 411.931C331.156 408.68 326.679 406.878 322.03 406.916H171.471C171.333 406.916 171.196 406.943 171.068 406.996C170.941 407.05 170.825 407.128 170.727 407.226C170.629 407.324 170.552 407.441 170.499 407.569C170.446 407.697 170.419 407.835 170.419 407.974V409.111C170.424 409.388 170.537 409.652 170.734 409.846C170.931 410.04 171.195 410.149 171.471 410.149H321.27C325.082 410.143 328.745 411.636 331.476 414.309C334.208 416.982 335.791 420.623 335.887 424.454Z" fill="white"/>
<path d="M390.673 424.65C390.673 428.807 389.03 432.795 386.106 435.734C383.182 438.674 379.216 440.326 375.081 440.326H241.264V408.875H375.081C377.137 408.875 379.172 409.284 381.07 410.078C382.969 410.872 384.692 412.035 386.141 413.502C387.59 414.968 388.736 416.707 389.514 418.621C390.292 420.534 390.686 422.583 390.673 424.65Z" fill="#8140FF"/>
<path opacity="0.7" d="M241.187 408.875V440.404H375.004C379.162 440.404 383.15 438.743 386.091 435.787C389.031 432.831 390.683 428.821 390.683 424.64C390.683 420.459 389.031 416.449 386.091 413.493C383.15 410.536 379.162 408.875 375.004 408.875H241.187Z" fill="white"/>
<path opacity="0.2" d="M241.187 417.203V414.636L374.555 415.714L241.187 417.203Z" fill="black"/>
<path opacity="0.2" d="M241.187 428.255V426.276L301.059 428.432L241.187 428.255Z" fill="black"/>
<path opacity="0.2" d="M241.187 435.643V433.076L337.72 434.565L241.187 435.643Z" fill="black"/>
<path opacity="0.2" d="M375.218 411.952C377.795 411.964 380.277 412.926 382.195 414.656C381.366 416.286 380.713 418.001 380.246 419.771L246.429 420.829L379.935 421.162C379.725 422.24 379.614 423.335 379.603 424.434C379.613 425.753 379.763 427.067 380.051 428.353L289.931 430.313L380.909 431.371C381.684 433.56 382.697 435.656 383.93 437.622C386.746 435.748 388.881 433.006 390.014 429.808C391.147 426.609 391.216 423.128 390.212 419.886C389.207 416.645 387.184 413.819 384.444 411.833C381.705 409.848 378.399 408.81 375.023 408.876H241.206V411.952H375.218Z" fill="black"/>
<path d="M389.426 424.454C389.426 426.326 389.059 428.18 388.345 429.91C387.632 431.64 386.587 433.211 385.269 434.534C383.951 435.857 382.387 436.906 380.665 437.621C378.944 438.336 377.1 438.702 375.237 438.7H238.945C238.666 438.7 238.398 438.811 238.201 439.01C238.003 439.208 237.893 439.477 237.893 439.758V440.894C237.898 441.171 238.011 441.436 238.208 441.63C238.404 441.824 238.669 441.933 238.945 441.933H376.017C378.315 441.938 380.592 441.485 382.715 440.598C384.838 439.712 386.765 438.411 388.384 436.771C390.003 435.13 391.282 433.183 392.146 431.042C393.011 428.9 393.444 426.608 393.421 424.297C393.319 419.624 391.39 415.18 388.052 411.927C384.714 408.674 380.236 406.874 375.588 406.916H238.945C238.666 406.916 238.398 407.028 238.201 407.226C238.003 407.424 237.893 407.694 237.893 407.974V409.111C237.898 409.388 238.011 409.652 238.208 409.846C238.404 410.041 238.669 410.149 238.945 410.149H374.828C378.638 410.143 382.299 411.636 385.027 414.31C387.755 416.983 389.334 420.625 389.426 424.454Z" fill="#263238"/>
<path d="M374.555 420.456V433.076L370.014 428.51L365.609 432.938V420.456H374.555Z" fill="#8140FF"/>
<path d="M409.91 242.825H406.655C406.048 242.842 405.453 243.002 404.919 243.291C404.384 243.58 403.924 243.991 403.575 244.491L400.32 249.252C399.683 250.195 399.277 251.277 399.138 252.408C398.999 253.539 399.131 254.688 399.521 255.758L400.009 257.11C405.446 257.384 411.508 253.642 411.508 253.642L413.457 252.779C413.842 252.611 414.19 252.368 414.482 252.064C414.773 251.76 415.001 251.4 415.154 251.007C415.306 250.613 415.379 250.193 415.369 249.771C415.358 249.348 415.265 248.933 415.094 248.547L413.418 244.843C413.098 244.195 412.594 243.656 411.969 243.297C411.344 242.938 410.627 242.773 409.91 242.825Z" fill="#EEC1BB"/>
<path d="M350.037 246.234C358.164 252.701 366.798 259.128 376.29 263.282L374.341 262.89C373.561 262.89 374.01 263.106 374.672 262.89C377.905 261.957 380.994 260.579 383.852 258.795C387.75 256.542 393.46 252.72 397.378 250.212C397.926 249.827 398.545 249.557 399.199 249.418C399.853 249.278 400.528 249.272 401.185 249.4C401.841 249.528 402.465 249.787 403.02 250.162C403.574 250.538 404.048 251.021 404.414 251.584C407.279 256.267 401.373 260.676 399.015 264.184C392.252 271.65 382.994 281.937 371.573 280.585C358.67 276.884 346.8 270.215 336.901 261.107C327.604 252.054 340.019 238.024 350.037 246.215V246.234Z" fill="#EBC0BB"/>
<path d="M330.313 239.317C327.253 247.9 332.262 256.424 343.956 266.457C349.803 265.575 357.833 253.406 357.833 253.406C357.833 253.406 341.227 236.633 330.313 239.317Z" fill="#8140FF"/>
<path d="M340.506 186.057C340.506 186.057 328.812 174.045 313.61 189.114C298.408 204.183 295.426 254.171 295.426 254.171L335.147 262.009C335.147 262.009 340.292 256.13 342.942 238.965C345.593 221.799 346.977 205.496 350.329 201.734C353.681 197.971 340.506 186.057 340.506 186.057Z" fill="#263238"/>
<path d="M374.633 439.131L366.019 435.682L369.39 423.062L372.489 411.501L383.364 413.911L378.745 427.256L374.633 439.131Z" fill="#EEC1BB"/>
<path opacity="0.2" d="M378.648 427.53L369.293 423.298L372.45 411.619L383.345 413.97L378.648 427.53Z" fill="black"/>
<path d="M309.518 325.419C309.518 325.419 381.435 315.621 401.431 328.495C421.428 341.37 382.721 419.496 382.721 419.496L370.579 416.89C370.579 416.89 379.642 354.93 378.96 352.225C378.278 349.521 344.424 366.55 298.058 368.156L309.518 325.419Z" fill="#263238"/>
<path opacity="0.2" d="M309.518 325.419C309.518 325.419 381.435 315.621 401.431 328.495C421.428 341.37 382.721 419.496 382.721 419.496L370.579 416.89C370.579 416.89 379.642 354.93 378.96 352.225C378.278 349.521 344.424 366.55 298.058 368.156L309.518 325.419Z" fill="black"/>
<path d="M369.936 412.99L385.177 417.968L382.449 424.944L368.436 420.162L369.936 412.99Z" fill="#263238"/>
<path d="M377.673 437.583C377.673 437.583 380.655 433.664 382.526 435.447C384.397 437.23 377.673 437.583 377.673 437.583ZM377.673 437.583C377.673 437.583 383.52 437.798 383.403 439.817C383.208 442.873 377.673 437.583 377.673 437.583Z" stroke="#9B6AFA" stroke-width="0.48" stroke-linecap="round" stroke-linejoin="round"/>
<path d="M364.42 430.293C364.771 429.333 376.446 433.997 376.446 433.997C376.446 433.997 381.357 443.912 387.945 447.929C394.532 451.946 389.153 454.944 381.182 452.338L361.477 445.891C355.806 444.049 360.834 440.345 364.42 430.293Z" fill="#2E353A"/>
<path opacity="0.4" d="M369.936 412.99L385.177 417.968L382.449 424.944L368.436 420.162L369.936 412.99Z" fill="white"/>
<path d="M412.17 464.154L403.244 466.681L398.294 454.611L393.752 443.52L403.848 438.797L408.253 452.22L412.17 464.154Z" fill="#EEC1BB"/>
<path d="M399.307 460.352C399.307 459.314 411.878 460.352 411.878 460.352C411.878 460.352 419.401 468.445 426.846 470.405C434.291 472.364 430.004 476.793 421.623 476.577L400.886 476.048C394.942 475.989 398.781 470.973 399.307 460.352Z" fill="#2E353A"/>
<path d="M413.457 461.802C413.457 461.802 415.211 457.198 417.53 458.354C420.161 459.706 413.457 461.802 413.457 461.802ZM413.457 461.802C413.457 461.802 419.148 460.313 419.596 462.292C420.201 465.29 413.457 461.802 413.457 461.802Z" stroke="#9B6AFA" stroke-width="0.48" stroke-linecap="round" stroke-linejoin="round"/>
<path opacity="0.2" d="M408.331 452.495L398.352 454.846L393.792 443.657L403.868 438.856L408.331 452.495Z" fill="black"/>
<path d="M329.924 334.844C329.924 334.844 328.891 320.54 328.404 317.62C328.001 314.731 327.415 311.871 326.649 309.057C323.473 299.514 281.199 310.723 281.199 310.723L279.991 317.267C279.991 317.267 260.91 353.44 273.657 366.471C277.555 370.39 285.136 372.213 292.893 372.154C292.893 372.154 316.612 373.31 360.698 371.233C360.698 371.233 357.443 397.059 393.831 447.654L405.993 443.735C405.993 443.735 381.962 351.873 379.935 350.227C362.316 335.961 329.924 334.844 329.924 334.844Z" fill="#263238"/>
<path d="M391.589 447.086L406.694 441.698L408.76 448.928L394.747 453.69L391.589 447.086Z" fill="#263238"/>
<path d="M344.131 246.176C344.131 246.176 342.611 249.899 340.506 256.424C339.999 257.953 339.473 259.638 338.908 261.46C338.206 263.831 337.427 266.457 336.647 269.298C336.102 271.258 335.536 273.492 334.971 275.745C334.406 277.999 333.841 280.448 333.276 282.937C333.276 283.23 333.159 283.524 333.1 283.818C330.715 293.996 328.983 304.318 327.916 314.72L281.452 310.644C281.446 300.388 281.972 290.139 283.031 279.938C283.862 271.144 285.473 262.442 287.845 253.935C289.218 248.51 291.701 243.431 295.134 239.023C295.134 239.023 320.315 230.715 344.131 246.176Z" fill="#8140FF"/>
<path d="M320.432 232.322C306.458 227.834 300.942 238.847 300.942 238.847L308.368 238.102L323.492 257.169L332.34 245.647L337.914 248.664C337.914 248.664 332.574 236.221 320.432 232.322Z" fill="#8140FF"/>
<path opacity="0.6" d="M320.432 232.322C306.458 227.834 300.942 238.847 300.942 238.847L308.368 238.102L323.492 257.169L332.34 245.647L337.914 248.664C337.914 248.664 332.574 236.221 320.432 232.322Z" fill="white"/>
<path d="M323.199 256.189L310.395 236.907C316.436 234.144 320.451 222.524 321.309 215.979L330.372 229.696C327.409 234.105 325.441 239.161 332.321 242.962C332.223 243.001 323.199 256.15 323.199 256.189Z" fill="#EEC1BB"/>
<path opacity="0.2" d="M324.992 221.564L330.372 229.716C329.669 230.731 329.056 231.806 328.54 232.929C325.87 231.714 323.024 227.697 323.687 224.856C323.919 223.688 324.362 222.572 324.992 221.564Z" fill="black"/>
<path d="M280.692 312.173L295.212 313.133L294.686 317.248L279.27 316.131L280.692 312.173Z" fill="black"/>
<path d="M329.027 319.717L296.44 317.366L296.966 313.25L328.501 315.328L329.027 319.717Z" fill="black"/>
<path d="M312.11 314.896L311.993 317.581C311.982 317.881 312.088 318.174 312.288 318.397C312.488 318.62 312.767 318.756 313.065 318.776L316.963 319.051C317.265 319.072 317.563 318.973 317.793 318.775C318.023 318.577 318.166 318.296 318.191 317.992L318.386 315.249C318.396 315.097 318.377 314.945 318.329 314.8C318.281 314.656 318.205 314.523 318.105 314.408C318.005 314.293 317.884 314.199 317.748 314.132C317.613 314.064 317.465 314.025 317.314 314.015L313.24 313.799C312.947 313.799 312.665 313.913 312.454 314.118C312.244 314.323 312.12 314.602 312.11 314.896Z" stroke="white" stroke-miterlimit="10"/>
<path opacity="0.5" d="M391.589 447.086L406.694 441.698L408.76 448.928L394.747 453.69L391.589 447.086Z" fill="white"/>
<path d="M353.039 212.08C352.654 211.323 352.103 210.663 351.428 210.15C350.753 209.638 349.971 209.286 349.141 209.121" stroke="#263238" stroke-width="0.55" stroke-linecap="round" stroke-linejoin="round"/>
<path d="M348.712 218.135C348.854 219.961 349.214 221.764 349.783 223.504C349.319 223.788 348.787 223.938 348.244 223.938C347.701 223.938 347.168 223.788 346.704 223.504L348.712 218.135Z" fill="#D4827D"/>
<path d="M351.596 216.175C351.265 216.998 350.543 217.469 349.998 217.253C349.452 217.038 349.277 216.175 349.627 215.294C349.978 214.412 350.661 214 351.206 214.216C351.752 214.431 351.927 215.352 351.596 216.175Z" fill="#263238"/>
<path d="M350.972 214.216H352.921C352.921 214.216 351.537 215.392 350.972 214.216Z" fill="#263238"/>
<path d="M321.485 223.249C321.534 223.381 321.599 223.506 321.679 223.622C321.816 223.896 321.952 224.131 322.108 224.405C322.945 226.02 324.083 227.457 325.46 228.638C329.923 232.361 333.763 233.556 337.154 232.557L337.641 232.4C342.767 230.441 346.802 224.562 350.212 216.489C351.68 213.399 352.641 210.09 353.058 206.691C353.058 206.691 353.058 206.574 353.058 206.534V206.143C353.232 204.177 352.91 202.198 352.123 200.39C351.336 198.582 350.11 197.002 348.556 195.796C347.234 194.701 345.796 193.754 344.268 192.974C329.514 185.215 314.312 208.807 321.485 223.249Z" fill="#EEC1BB"/>
<path d="M353.194 206.574C351.761 209.796 349.404 212.515 346.425 214.382C343.446 216.25 339.981 217.181 336.472 217.057C336.472 217.057 326.727 225.875 320.315 222.838C311.623 218.703 310.219 202.576 319.458 191.485C331.444 177.298 356.566 188.37 353.194 206.574Z" fill="#263238"/>
<path d="M343.04 216.587C343.878 214.921 343.937 211.492 341.208 210.571C338.48 209.65 333.627 215.431 339.376 220.173C340.214 220.859 341.345 220.016 343.04 216.587Z" fill="#EEC1BB"/>
<path d="M340.506 186.057C340.506 186.057 351.83 188.585 355.338 195.463C359.451 203.477 359.451 209.611 347.952 213.334C347.952 213.334 333.86 199.304 327.682 197.658C324.071 196.704 320.388 196.049 316.67 195.698C321.095 183.804 336.063 180.923 340.506 186.057Z" fill="#263238"/>
<path d="M336.472 217.057C329.358 231.342 313.708 255.64 297.044 238.494C297.044 238.494 303.028 219.134 315.131 211.061C327.234 202.988 336.472 217.057 336.472 217.057Z" fill="#263238"/>
<path d="M333.899 240.905C339.98 245.412 332.184 260.304 339.883 263.635C339.163 262.629 338.71 261.455 338.567 260.225C338.423 258.994 338.594 257.746 339.064 256.601C340.662 252.544 347.191 241.845 344.599 227.345L333.899 240.905Z" fill="#263238"/>
<path opacity="0.2" d="M302.365 272.335C302.365 272.335 292.425 279.096 283.011 279.938C283.842 271.144 285.454 262.442 287.825 253.935C289.017 253.25 290.352 252.854 291.723 252.779C293.782 252.879 295.769 253.563 297.456 254.753C299.143 255.942 300.46 257.589 301.254 259.5C302.022 263.735 302.394 268.032 302.365 272.335Z" fill="black"/>
<path d="M338.674 319.188L336.57 316.66C336.179 316.198 335.687 315.834 335.132 315.596C334.577 315.358 333.975 315.253 333.373 315.288L327.526 315.719C326.396 315.806 325.303 316.162 324.337 316.759C323.371 317.355 322.56 318.174 321.972 319.149L321.25 320.383C324.427 324.812 331.132 327.241 331.132 327.241L332.964 328.162C333.334 328.359 333.74 328.479 334.157 328.516C334.574 328.553 334.994 328.507 335.393 328.379C335.792 328.251 336.162 328.045 336.481 327.773C336.8 327.5 337.062 327.166 337.252 326.791L339.084 323.166C339.404 322.533 339.535 321.822 339.463 321.116C339.39 320.41 339.116 319.741 338.674 319.188Z" fill="#EEC1BB"/>
<path d="M301.643 258.913C301.643 269.337 302.092 280.134 304.801 290.265L303.943 288.58C305.291 290.714 306.803 292.739 308.465 294.635C314.429 301.63 320.821 308.352 326.785 315.543C327.514 316.443 327.91 317.569 327.906 318.73C327.902 319.89 327.498 321.013 326.762 321.908C326.026 322.802 325.005 323.413 323.872 323.635C322.739 323.857 321.565 323.677 320.548 323.127C312.126 318.313 304.166 312.724 296.771 306.431C293.653 303.551 289.911 300.69 288.079 296.634C283.129 284.398 281.003 271.192 281.861 258.011C283.089 245.059 301.741 246.039 301.643 259.011V258.913Z" fill="#EBC0BB"/>
<path d="M294.686 239.2C286.11 242.139 282.583 251.349 282.193 266.927C286.578 271.003 301.001 269.651 301.001 269.651C301.001 269.651 303.593 245.999 294.686 239.2Z" fill="#8140FF"/>
<path d="M386.99 331.298V335.452C386.99 336.53 385.742 336.961 384.709 336.961H302.15C301.098 336.961 299.812 336.53 299.812 335.452V331.298H386.99Z" fill="#263238"/>
<path opacity="0.4" d="M386.99 331.298V335.452C386.99 336.53 385.742 336.961 384.709 336.961H302.15C301.098 336.961 299.812 336.53 299.812 335.452V331.298H386.99Z" fill="white"/>
<path opacity="0.2" d="M386.99 331.298V335.452C386.99 336.53 385.742 336.961 384.709 336.961H330.255C329.203 336.961 327.936 336.53 327.936 335.452V331.298H386.99Z" fill="black"/>
<path d="M400.808 288.188L391.063 333.002C390.88 333.72 390.468 334.357 389.891 334.817C389.314 335.277 388.603 335.535 387.867 335.55H334.192C333.864 335.528 333.545 335.433 333.259 335.271C332.973 335.108 332.728 334.883 332.54 334.612C332.353 334.34 332.229 334.03 332.177 333.704C332.126 333.378 332.148 333.044 332.243 332.728L341.988 288.247C342.194 287.572 342.623 286.989 343.205 286.593C343.786 286.198 344.484 286.014 345.184 286.072H398.859C400.223 286.072 401.12 286.718 400.808 288.188Z" fill="#263238"/>
<path opacity="0.4" d="M400.808 288.188L391.063 333.002C390.88 333.72 390.469 334.357 389.891 334.817C389.314 335.277 388.603 335.535 387.867 335.55H336.024C335.696 335.528 335.377 335.433 335.091 335.27C334.806 335.108 334.56 334.883 334.372 334.612C334.185 334.34 334.061 334.03 334.009 333.704C333.958 333.378 333.98 333.044 334.075 332.728L343.82 288.247C344.019 287.572 344.444 286.987 345.023 286.591C345.602 286.194 346.299 286.011 346.997 286.072H398.859C400.223 286.072 401.12 286.718 400.808 288.188Z" fill="white"/>
<path opacity="0.2" d="M374.341 310.958C374.166 312.773 373.358 314.467 372.059 315.74C370.761 317.014 369.056 317.784 367.247 317.914C364.245 317.914 362.472 314.798 363.349 310.958C364.226 307.117 367.247 304.119 370.131 304.001C369.273 307.921 371.105 310.958 374.029 310.958H374.341Z" fill="black"/>
</g>
<defs>
<clipPath id="clip0_557_5322">
<rect width="654" height="490" fill="white"/>
</clipPath>
</defs>
</svg>
