<svg width="22" height="37" viewBox="0 0 22 37" fill="none" xmlns="http://www.w3.org/2000/svg">
<path d="M12.523 14.5324L15.75 15.0105H15.7982C15.9427 15.0105 16.039 14.9627 16.0872 14.8671C16.1835 14.7714 16.1835 14.5802 16.1353 14.4846L14.3051 10.8037C14.2087 10.6603 14.0642 10.5647 13.8716 10.6125C13.6789 10.6603 13.5826 10.8037 13.5826 10.995V13.9588L12.6193 13.8154C12.4266 13.7676 12.234 13.911 12.1858 14.15C12.1376 14.389 12.2821 14.5324 12.523 14.5324ZM14.3532 12.5725L15.1239 14.15L14.3532 14.0544V12.5725Z" fill="#FA0A0A"/>
<path d="M6.02065 13.7673L5.05735 13.9107V10.9469C5.05735 10.7557 4.91286 10.6122 4.76836 10.5644C4.62386 10.5166 4.4312 10.6122 4.33487 10.7557L2.5046 14.4365C2.45643 14.5799 2.45643 14.7234 2.55276 14.819C2.64909 14.9146 2.74542 14.9624 2.84175 14.9624H2.88992L6.11698 14.4843C6.30964 14.4365 6.45414 14.2453 6.45414 14.0541C6.45414 13.8629 6.21331 13.7673 6.02065 13.7673ZM4.28671 14.0541L3.51607 14.1497L4.28671 12.5722V14.0541Z" fill="#FA0A0A"/>
<path d="M9.29585 6.69251C11.1743 6.69251 12.6674 5.21059 12.6674 3.34625C12.6674 1.48191 11.1743 0 9.29585 0C7.4174 0 5.92429 1.48191 5.92429 3.34625C5.92429 5.16279 7.46557 6.69251 9.29585 6.69251ZM9.29585 0.764858C10.7408 0.764858 11.8968 1.91214 11.8968 3.34625C11.8968 4.78036 10.7408 5.92765 9.29585 5.92765C7.85089 5.92765 6.69493 4.78036 6.69493 3.34625C6.69493 1.91214 7.85089 0.764858 9.29585 0.764858Z" fill="#FA0A0A"/>
<path d="M20.133 25.8139L13.6789 20.5555C13.6307 20.5077 13.5344 20.5077 13.4862 20.4599C13.5344 20.4121 13.5344 20.3165 13.5344 20.2687C13.5344 18.8346 13.7752 17.4961 13.8716 16.9225L16.1835 17.3527H16.2317C17.4358 17.3527 18.5917 16.1098 18.5917 14.8669C18.5917 14.5801 18.5436 14.2933 18.3991 14.0542C18.3509 13.863 16.7133 9.89532 15.5092 8.60462C15.0275 8.12659 10.9817 6.78809 9.24771 6.78809C7.61009 6.78809 3.70872 7.69635 2.88991 8.60462C1.73394 9.79971 0.192661 13.863 0.144495 14.0064C0.0481651 14.2455 0 14.5323 0 14.8191C0 16.062 1.20413 17.3049 2.36009 17.3049H2.40826L4.72018 16.8747C4.81651 17.4961 5.05734 18.7868 5.05734 20.2209L4.09404 36.5697C4.09404 36.6653 4.1422 36.761 4.19037 36.8566C4.2867 36.9522 4.38303 37 4.47936 37H6.74312C6.93578 37 7.08028 36.8566 7.12844 36.6653L9.58486 23.1847L14.883 26.531L9.82569 28.0607C9.68119 28.1085 9.58486 28.2041 9.58486 28.3475L9.00688 30.6899C8.95872 30.8333 9.00688 30.9767 9.10321 31.0723C9.19954 31.1679 9.34404 31.2157 9.44037 31.1679L19.4587 29.0168C20.2775 28.8734 20.8555 28.4431 21 27.7739C21.1445 27.1046 20.8555 26.3398 20.133 25.8139ZM20.2294 27.5827C20.133 27.9173 19.7959 28.1563 19.2661 28.2519L9.82569 30.2597L10.211 28.7299L15.8945 27.0568C16.039 27.009 16.1353 26.9134 16.1835 26.7222C16.1835 26.5788 16.1353 26.4354 15.9908 26.3398L9.5367 22.2287C9.44037 22.1809 9.29587 22.133 9.15138 22.1809C9.05505 22.2287 8.95872 22.3243 8.91055 22.4677L6.40596 36.1873H4.91284L5.87615 20.2209C5.87615 18.6434 5.63532 17.2571 5.49083 16.6834L7.08028 16.3488L7.3211 16.301C8.23624 16.062 9.19954 15.823 9.19954 14.6279V12.8113H8.4289V14.6279C8.4289 15.2015 8.18807 15.3449 7.12844 15.584L4.57569 16.1098V16.1576L2.31193 16.54C1.54128 16.54 0.722477 15.6318 0.722477 14.7713C0.722477 14.6279 0.770642 14.4845 0.818807 14.2933C0.818807 14.2455 2.40826 10.1821 3.41972 9.08266C3.99771 8.46121 7.56193 7.50514 9.24771 7.50514C10.8372 7.50514 14.5459 8.74803 14.9312 9.08266C16.0872 10.2778 17.6766 14.2455 17.7248 14.3411C17.8211 14.4845 17.8211 14.6279 17.8211 14.8191C17.8211 15.6318 17.0023 16.54 16.2317 16.54L13.9679 16.1576V16.1098L11.656 15.6318L11.4151 15.584C10.3555 15.3449 10.1147 15.2015 10.1147 14.6279V12.8113H9.34404V14.6279C9.34404 15.8708 10.3073 16.1098 11.2225 16.301L13.0528 16.6834C12.9083 17.3049 12.6674 18.6912 12.6674 20.2687C12.6674 20.4599 12.8119 20.6033 13.0046 20.6511C12.9083 20.7945 12.9083 21.0336 13.0528 21.177L19.5069 26.4354C20.133 26.77 20.3257 27.2002 20.2294 27.5827Z" fill="#FA0A0A"/>
</svg>
