<svg width="48" height="38" viewBox="0 0 48 38" fill="none" xmlns="http://www.w3.org/2000/svg">
<path d="M23.7578 4.73966L16.1395 0.589844L8.08759 4.98741V13.8445L15.644 17.9943V26.2939L23.7578 30.6915L31.8716 26.2939V17.9943L39.4899 13.8445V4.98741L31.3761 0.589844L23.7578 4.73966ZM37.9415 5.2971L31.3761 8.88948L24.8107 5.2971L31.3761 1.70472L37.9415 5.2971ZM23.7578 21.277L17.1924 17.6846L20.2273 16.0123L23.7578 14.0922L27.2882 16.0123L30.3232 17.6846L23.7578 21.277ZM30.8806 16.8794L27.8457 15.2071L24.3152 13.287V6.10229L30.9425 9.69466V16.8794H30.8806ZM23.2623 13.287L19.7318 15.2071L16.6969 16.8794V9.69466L23.3242 6.10229V13.287H23.2623ZM22.7048 5.2971L16.1395 8.88948L9.63602 5.2971L16.1395 1.70472L22.7048 5.2971ZM9.07859 6.10229L15.7059 9.69466V16.8794L9.07859 13.287V6.10229ZM16.635 18.5517L23.2623 22.1441V29.3289L16.635 25.7365V18.5517ZM24.2533 29.3289V22.1441L30.8806 18.5517V25.7365L24.2533 29.3289ZM31.8716 16.8794V9.69466L38.437 6.10229V13.287L31.8716 16.8794Z" fill="#37C045"/>
<path d="M24.2533 31.4968H23.2623V32.4259H24.2533V31.4968Z" fill="#37C045"/>
<path d="M24.2533 33.355H23.2623V34.284H24.2533V33.355Z" fill="#37C045"/>
<path d="M24.2533 37.0713H23.2623V38.0004H24.2533V37.0713Z" fill="#37C045"/>
<path d="M24.2533 35.2131H23.2623V36.1422H24.2533V35.2131Z" fill="#37C045"/>
<path d="M46.9778 -1.49512e-05L46.4468 0.318848L46.957 1.16844L47.488 0.849578L46.9778 -1.49512e-05Z" fill="#37C045"/>
<path d="M40.849 3.71751L40.0519 4.19482L40.5612 5.04498L41.3582 4.56766L40.849 3.71751Z" fill="#37C045"/>
<path d="M45.6824 0.839577L44.8854 1.31689L45.3946 2.16705L46.1917 1.68973L45.6824 0.839577Z" fill="#37C045"/>
<path d="M44.0605 1.78128L43.2634 2.25867L43.7726 3.10887L44.5696 2.63148L44.0605 1.78128Z" fill="#37C045"/>
<path d="M42.4391 2.72246L41.6421 3.19983L42.1513 4.05002L42.9483 3.57265L42.4391 2.72246Z" fill="#37C045"/>
<path d="M0.510154 0.0395673L0 0.88916L0.530986 1.20802L1.04114 0.35843L0.510154 0.0395673Z" fill="#37C045"/>
<path d="M1.86986 0.823969L1.36005 1.67383L2.15683 2.1517L2.66664 1.30184L1.86986 0.823969Z" fill="#37C045"/>
<path d="M6.6279 3.69148L6.11816 4.54138L6.91491 5.01932L7.42465 4.16942L6.6279 3.69148Z" fill="#37C045"/>
<path d="M3.50199 1.78377L2.99225 2.63367L3.789 3.11161L4.29874 2.2617L3.50199 1.78377Z" fill="#37C045"/>
<path d="M5.04923 2.76424L4.53949 3.61414L5.33624 4.09207L5.84598 3.24217L5.04923 2.76424Z" fill="#37C045"/>
</svg>
