<svg width="39" height="39" viewBox="0 0 39 39" fill="none" xmlns="http://www.w3.org/2000/svg">
<rect width="39" height="39" rx="19.5" fill="#8B5CF6"/>
<path fill-rule="evenodd" clip-rule="evenodd" d="M29.6846 8.31542C30.1051 8.73599 30.1051 9.41786 29.6846 9.83842L17.8384 21.6846C17.4179 22.1051 16.736 22.1051 16.3154 21.6846C15.8949 21.264 15.8949 20.5821 16.3154 20.1616L28.1616 8.31542C28.5821 7.89486 29.264 7.89486 29.6846 8.31542Z" fill="white"/>
<path fill-rule="evenodd" clip-rule="evenodd" d="M29.6805 8.31955C29.9768 8.61588 30.0772 9.05577 29.9387 9.45132L22.3024 31.2695C22.1546 31.6917 21.7641 31.9809 21.3172 31.9991C20.8703 32.0173 20.4575 31.7609 20.2758 31.3521L16.0826 21.9174L6.64785 17.7242C6.23911 17.5425 5.98268 17.1297 6.00091 16.6828C6.01915 16.2359 6.30835 15.8454 6.73053 15.6976L28.5487 8.06128C28.9442 7.92283 29.3841 8.02322 29.6805 8.31955ZM10.0484 16.8479L17.3521 20.094C17.5989 20.2037 17.7963 20.4011 17.906 20.6479L21.1521 27.9516L27.1309 10.8691L10.0484 16.8479Z" fill="white"/>
</svg>
