<svg width="24" height="24" viewBox="0 0 24 24" fill="none" xmlns="http://www.w3.org/2000/svg">
<g id="Views / Images: Avatars">
<circle id="Ellipse 7" cx="12" cy="12" r="12" fill="white"/>
<g id="icon_comfuturo">
<path id="Vector" d="M15.7664 6.04355L15.647 6.62699C15.6456 6.63447 15.6423 6.64151 15.6374 6.64751C15.6325 6.6535 15.6261 6.65827 15.6189 6.66141L15.027 6.91325C15.0189 6.91717 15.0121 6.92317 15.0073 6.93058C15.0025 6.93799 15 6.94652 15 6.95523C15 6.96393 15.0025 6.97246 15.0073 6.97987C15.0121 6.98728 15.0189 6.99328 15.027 6.9972L15.5969 7.27675C15.6046 7.28049 15.6111 7.28611 15.6157 7.29305C15.6203 7.29999 15.623 7.30798 15.6233 7.3162L15.6619 7.95085C15.6612 7.96091 15.664 7.97091 15.6698 7.97932C15.6757 7.98772 15.6842 7.99408 15.6941 7.99741C15.7041 8.00074 15.7149 8.00086 15.725 7.99776C15.735 7.99466 15.7437 7.98851 15.7497 7.98024C15.8972 7.82745 16.2019 7.516 16.2371 7.52104L16.8614 7.63857C16.8707 7.64044 16.8803 7.63967 16.8891 7.63634C16.898 7.63301 16.9056 7.62727 16.911 7.61984C16.9164 7.61241 16.9195 7.60362 16.9197 7.59456C16.9199 7.5855 16.9174 7.57657 16.9123 7.56889L16.5804 7.03918C16.5749 7.03138 16.5719 7.02216 16.5719 7.01273C16.5719 7.0033 16.5749 6.99409 16.5804 6.98629L16.9896 6.4742C16.9956 6.46687 16.9992 6.45801 16.9999 6.44874C17.0006 6.43948 16.9984 6.43022 16.9936 6.42213C16.9888 6.41405 16.9816 6.4075 16.9729 6.40332C16.9643 6.39914 16.9545 6.39752 16.9448 6.39865L16.288 6.47504C16.28 6.47588 16.2719 6.47486 16.2645 6.47209C16.257 6.46931 16.2503 6.46486 16.245 6.45909L15.8551 6.0192C15.8491 6.01145 15.8408 6.00563 15.8313 6.00252C15.8218 5.99942 15.8115 5.99917 15.8019 6.00183C15.7922 6.00448 15.7836 6.0099 15.7773 6.01736C15.7709 6.02482 15.7671 6.03396 15.7664 6.04355Z" fill="#F59E0B"/>
<path id="Vector_2" d="M12.4254 7L4 11.188L6.10589 12.2404V14.6059C5.95294 14.6428 5.81457 14.7228 5.70814 14.8361C5.60171 14.9493 5.53199 15.0907 5.50769 15.2424C5.48339 15.3942 5.5056 15.5495 5.57156 15.689C5.63752 15.8285 5.74429 15.9459 5.87844 16.0264L5.62785 17.3638H6.98469L6.74921 16.0169C6.88012 15.9342 6.98336 15.8159 7.04619 15.6767C7.10902 15.5375 7.12871 15.3834 7.10283 15.2335C7.07696 15.0835 7.00663 14.9442 6.90054 14.8326C6.79445 14.7211 6.65722 14.6423 6.50574 14.6059V12.4405L8.99817 13.6851C9.17831 13.7737 9.33549 13.9009 9.45785 14.0572C9.58022 14.2136 9.66457 14.395 9.70457 14.5877C9.76723 14.9194 9.79699 15.2561 9.79343 15.5933C9.77728 16.7598 9.5452 17.9139 9.10835 19C13.521 11.3188 8.24645 9.89389 8.24645 9.89389C10.8624 9.77176 12.6742 11.932 12.6742 11.932C14.5295 11.3006 15.857 9.356 15.857 9.356C15.235 14.0922 10.4838 18.0178 10.4838 18.0178C13.4108 16.6007 15.2714 14.0429 15.2714 14.0429L21 11.2001L12.4254 7ZM12.859 10.9229C12.6872 10.9229 12.5194 10.8733 12.3766 10.7802C12.2338 10.6872 12.1225 10.555 12.0569 10.4003C11.9912 10.2456 11.974 10.0754 12.0076 9.91124C12.0412 9.74706 12.1239 9.59628 12.2454 9.47796C12.3669 9.35964 12.5217 9.27911 12.6902 9.24656C12.8586 9.214 13.0332 9.23089 13.1918 9.29507C13.3504 9.35925 13.4859 9.46785 13.5812 9.60713C13.6765 9.74641 13.7273 9.91012 13.7271 10.0775C13.7262 10.3013 13.6343 10.5156 13.4715 10.6734C13.3088 10.8312 13.0885 10.9197 12.859 10.9194V10.9229Z" fill="#8B5CF6"/>
</g>
</g>
</svg>
