<svg width="47" height="32" viewBox="0 0 47 32" fill="none" xmlns="http://www.w3.org/2000/svg">
<path d="M46.0038 13.7319C46.0638 12.9658 45.4033 11.846 44.5025 10.4905C44.2623 10.1369 44.0821 9.78327 43.962 9.60646C43.7218 9.13498 43.5416 8.48669 43.3615 7.77947C43.0612 6.6597 42.761 5.36312 41.9202 4.12548C38.9777 0.0589353 32.9124 0 32.5521 0C29.8497 0 27.2675 1.0019 25.2858 2.8289H23.4842H23.0038H20.7218C18.7401 1.0019 16.2179 0 13.4555 0C13.2153 0 7.0299 0 4.08734 4.12548C3.24661 5.30418 2.8863 6.60076 2.64609 7.77947C2.46593 8.48669 2.34583 9.13498 2.04556 9.60646C1.92546 9.84221 1.7453 10.1369 1.50509 10.4905C0.604311 11.846 -0.0562635 12.9658 0.00378876 13.7319C0.063841 15.0285 1.56515 15.6768 2.34583 15.9715C2.22572 16.384 1.98551 16.9734 1.80536 17.5038C1.56515 18.211 1.86541 18.8004 2.58603 19.0951C3.42677 19.3897 5.10823 19.6255 5.16828 19.6255L5.28838 18.6825C5.28838 18.6825 3.66697 18.5057 2.8863 18.211C2.64609 18.1521 2.58603 18.0342 2.70614 17.7985C3.0064 16.9734 3.36671 15.8536 3.36671 15.8536L3.60692 15.3232L3.06645 15.2053C2.52598 15.0875 0.964624 14.4981 0.964624 13.673C0.904572 13.1426 1.80536 11.7871 2.28577 10.962C2.52598 10.5494 2.76619 10.2548 2.8863 9.96008C3.18656 9.37072 3.36671 8.6635 3.54687 7.95627C3.78708 6.89544 4.08734 5.71673 4.86802 4.65589C7.57037 0.942966 13.4555 0.942966 13.4555 0.942966C15.5573 0.942966 17.539 1.59125 19.2205 2.8289H17.9594L17.8994 3.18251C17.8393 3.47719 17.7192 4.24335 17.9594 4.65589C18.0795 4.89163 18.2597 5.06844 18.4398 5.24525C18.8001 5.59886 19.0403 5.89354 19.0403 6.42395C19.0403 7.30798 18.1996 8.07414 17.1787 8.07414C16.1578 8.07414 15.3171 7.36692 15.3171 6.42395C15.3171 5.89354 15.5573 5.59886 15.9176 5.24525C16.0978 5.06844 16.2779 4.89163 16.398 4.65589C16.6383 4.24335 16.5182 3.47719 16.4581 3.18251L16.398 2.8289H10.8732V7.48479C10.6931 7.48479 10.5129 7.48479 10.4529 7.48479C10.2727 7.36692 10.1526 7.24905 9.97246 7.13118C9.55209 6.77757 9.07167 6.30608 8.11084 6.30608C6.66959 6.30608 5.46854 7.54373 5.46854 9.07605C5.46854 10.6084 6.66959 11.846 8.11084 11.846C9.07167 11.846 9.55209 11.3745 9.97246 11.0209C10.1526 10.903 10.2727 10.7262 10.3928 10.6673C10.4529 10.6673 10.633 10.6673 10.8132 10.6673V15.3232H15.6174C15.6174 15.5 15.6174 15.6768 15.6174 15.7357C15.4973 15.9125 15.3772 16.0304 15.2571 16.2072C14.8967 16.6198 14.4163 17.0913 14.4163 18.0342C14.4163 19.4487 15.6774 20.6274 17.2388 20.6274C18.8001 20.6274 20.0612 19.4487 20.0612 18.0342C20.0612 17.1502 19.5808 16.6198 19.2205 16.2072C19.1004 16.0304 18.9202 15.9125 18.8602 15.7947C18.8602 15.7357 18.8602 15.5589 18.8602 15.3821H22.4033C21.9829 16.5019 21.4424 17.5627 20.902 18.6236C20.0612 20.2738 19.2806 21.865 18.8602 23.6331C18.1396 27.0513 19.5808 31.0589 19.6409 31.2357L20.5416 30.9411C20.5416 30.8821 19.1604 26.9924 19.821 23.8099C20.1813 22.1597 20.962 20.6274 21.7427 19.0361C22.2231 18.1521 22.6435 17.2681 23.0638 16.2662C23.4842 17.2091 23.9046 18.1521 24.385 19.0361C25.2257 20.6274 25.9463 22.1597 26.3067 23.8099C26.9672 26.9335 25.586 30.8821 25.586 30.9411L26.4868 31.2357C26.5469 31.0589 27.9281 27.0513 27.2675 23.6331C26.9072 21.8061 26.0665 20.2738 25.2257 18.6236C24.6853 17.5627 24.1448 16.5019 23.7244 15.3821H27.2675C27.2675 15.5589 27.2675 15.7357 27.2675 15.7947C27.1474 15.9715 27.0273 16.0894 26.9072 16.2662C26.5469 16.6787 26.0665 17.1502 26.0665 18.0932C26.0665 19.5076 27.3275 20.6863 28.8889 20.6863C30.4503 20.6863 31.7114 19.5076 31.7114 18.0932C31.7114 17.2091 31.2309 16.6787 30.8706 16.2662C30.7505 16.0894 30.5704 15.9715 30.5103 15.8536C30.5103 15.7947 30.5103 15.6179 30.5103 15.4411H35.2544V10.7852C35.4346 10.7852 35.6148 10.7852 35.6748 10.7852C35.855 10.903 35.9751 11.0209 36.1552 11.1388C36.5756 11.4924 37.056 11.9639 38.0168 11.9639C39.4581 11.9639 40.6591 10.7262 40.6591 9.19392C40.6591 7.6616 39.4581 6.42395 38.0168 6.42395C37.1161 6.42395 36.5756 6.89544 36.1552 7.24905C35.9751 7.36692 35.855 7.54373 35.7349 7.60266C35.6748 7.60266 35.4947 7.60266 35.3145 7.60266V2.8289H26.7871C28.4085 1.65019 30.4503 0.942966 32.5521 0.942966C32.6722 0.942966 38.4973 1.0019 41.1396 4.65589C41.9202 5.71673 42.2205 6.89544 42.4607 7.95627C42.6409 8.72243 42.821 9.37072 43.1213 9.96008C43.2414 10.1958 43.4816 10.5494 43.7218 10.962C44.2623 11.7871 45.103 13.1426 45.043 13.673C44.9829 14.4981 43.4215 15.0875 42.9411 15.2053L42.4007 15.3232L42.5808 15.7947C42.5808 15.7947 43.0012 16.8555 43.2414 17.7395C43.3014 17.9753 43.2414 18.0342 43.0612 18.1521C42.2806 18.4468 40.6591 18.6236 40.6591 18.6236L40.7792 19.5665C40.8393 19.5665 42.5208 19.3308 43.3615 19.0361C44.0821 18.8004 44.3824 18.1521 44.1422 17.4449C43.962 16.9144 43.7819 16.3251 43.6017 15.9125C44.4424 15.6768 45.9437 15.0285 46.0038 13.7319ZM17.9594 14.2034L17.8994 14.557C17.8393 14.8517 17.7192 15.6179 17.9594 16.0304C18.0795 16.2662 18.2597 16.443 18.4398 16.6198C18.8001 16.9734 19.0403 17.2681 19.0403 17.7985C19.0403 18.6825 18.1996 19.4487 17.1787 19.4487C16.1578 19.4487 15.3171 18.7414 15.3171 17.7985C15.3171 17.2681 15.5573 16.9734 15.9176 16.6198C16.0978 16.443 16.2779 16.2662 16.398 16.0304C16.6383 15.6179 16.5182 14.8517 16.4581 14.557L16.398 14.2034H11.8341V9.72433L11.4738 9.6654C11.1735 9.60646 10.3928 9.48859 9.97246 9.72433C9.73225 9.84221 9.55209 10.019 9.37194 10.1958C9.01162 10.5494 8.71136 10.7852 8.17089 10.7852C7.27011 10.7852 6.48943 9.96008 6.48943 8.95817C6.48943 7.95627 7.21006 7.13118 8.17089 7.13118C8.71136 7.13118 9.01162 7.36692 9.37194 7.72053C9.55209 7.89734 9.73225 8.07414 9.97246 8.19201C10.3928 8.42776 11.1735 8.30989 11.4738 8.25095L11.8341 8.19201V3.77186H15.6174C15.6174 3.94867 15.6174 4.12548 15.6174 4.12548C15.4973 4.30228 15.3772 4.42015 15.2571 4.59696C14.8367 5.00951 14.4163 5.48099 14.4163 6.42395C14.4163 7.8384 15.6774 9.01711 17.2388 9.01711C18.8001 9.01711 20.0612 7.8384 20.0612 6.42395C20.0612 5.48099 19.5808 5.00951 19.2205 4.59696C19.1004 4.42015 18.9202 4.30228 18.8602 4.18441C18.8602 4.12548 18.8602 3.94867 18.8602 3.77186H22.6435V8.36882L23.0038 8.42776C23.3041 8.48669 24.0847 8.60456 24.5051 8.36882C24.7453 8.25095 24.9255 8.07414 25.1056 7.89734C25.4659 7.60266 25.7662 7.30798 26.3067 7.30798C27.2675 7.30798 27.9881 8.07414 27.9881 9.07605C27.9881 10.0779 27.2074 10.8441 26.3067 10.8441C25.7662 10.8441 25.4659 10.6084 25.1056 10.2548C24.9255 10.0779 24.7453 9.90114 24.5051 9.78327C24.0847 9.54753 23.3041 9.6654 23.0038 9.72433L22.6435 9.78327V14.2034H17.9594ZM34.5338 8.30989C34.8341 8.36882 35.6148 8.48669 36.0351 8.25095C36.2753 8.13308 36.4555 7.95627 36.6356 7.77947C36.996 7.42586 37.2962 7.19011 37.8367 7.19011C38.7375 7.19011 39.5182 8.01521 39.5182 9.01711C39.5182 10.019 38.7975 10.8441 37.8367 10.8441C37.2962 10.8441 36.996 10.6084 36.6356 10.2548C36.4555 10.0779 36.2753 9.90114 36.0351 9.78327C35.6148 9.54753 34.8341 9.6654 34.5338 9.72433L34.1735 9.78327V14.2624H29.6095L29.5495 14.616C29.4894 14.9106 29.3693 15.6768 29.6095 16.0894C29.7296 16.3251 29.9098 16.5019 30.09 16.6787C30.4503 17.0323 30.6905 17.327 30.6905 17.8574C30.6905 18.7414 29.8497 19.5076 28.8289 19.5076C27.808 19.5076 26.9672 18.8004 26.9672 17.8574C26.9672 17.327 27.2074 17.0323 27.5678 16.6787C27.7479 16.5019 27.9281 16.3251 28.0482 16.0894C28.2884 15.6768 28.1683 14.9106 28.1082 14.616L28.0482 14.2624H23.4842V10.6084C23.6644 10.6084 23.8445 10.6084 23.9046 10.6084C24.0847 10.7262 24.2048 10.8441 24.385 10.962C24.8054 11.3156 25.3458 11.7871 26.2466 11.7871C27.6879 11.7871 28.8889 10.5494 28.8889 9.07605C28.8889 7.60266 27.6879 6.36502 26.2466 6.36502C25.2858 6.36502 24.8054 6.8365 24.385 7.19011C24.2048 7.30798 24.0847 7.48479 23.9646 7.54373C23.9046 7.54373 23.7244 7.54373 23.5443 7.54373V3.77186H34.2336V8.25095L34.5338 8.30989Z" fill="#F94BFD"/>
<path d="M42.7023 21.9831C42.7023 21.9831 42.7624 21.9831 42.7023 21.9831C42.8825 21.8063 43.1827 21.5706 43.1827 21.0401C43.1827 20.8044 43.1227 20.5687 42.9425 20.4508C42.5822 20.0972 41.8616 20.0972 41.6814 20.0972L41.7415 21.0401C41.9216 21.0401 42.1018 21.0401 42.2219 21.0991C42.2219 21.158 42.1618 21.2169 42.1018 21.2759C41.9817 21.3937 41.7415 21.6295 41.7415 22.042C41.7415 22.2778 41.8616 22.4546 41.9817 22.6314C42.1618 22.9261 42.342 23.1618 42.2219 23.3975C42.0417 23.9869 41.6814 24.0458 41.201 24.0458C39.1592 23.869 37.1775 23.3975 35.3759 22.5135C33.6344 21.6884 33.154 20.4508 33.094 20.3918L32.1932 20.7455C32.1932 20.8044 32.8538 22.3956 34.9556 23.3386C35.436 23.5744 35.9164 23.7512 36.3968 23.928L34.8955 30.7645L35.8564 30.9413L37.2976 24.2226C38.4987 24.5763 39.7598 24.812 41.0809 24.9299C41.141 24.9299 41.201 24.9299 41.3211 24.9299C42.4621 24.9299 42.8825 24.2226 43.1227 23.6333C43.3629 22.9261 42.9425 22.3956 42.7624 22.101C42.7624 22.042 42.7624 22.042 42.7023 21.9831Z" fill="#F94BFD"/>
<path d="M10.5744 22.5135C8.7728 23.3386 6.79108 23.869 4.7493 24.0458C4.26888 24.1048 3.90857 23.9869 3.72841 23.3975C3.66836 23.1618 3.78847 22.9261 3.96862 22.6314C4.08873 22.4546 4.20883 22.2778 4.20883 22.042C4.20883 21.6295 3.96862 21.3937 3.84852 21.2759C3.78847 21.2169 3.72841 21.158 3.72841 21.0991C3.84852 21.0401 4.02867 21.0401 4.20883 21.0401L4.26888 20.0972C4.08873 20.0972 3.3681 20.0972 3.00779 20.4508C2.82763 20.6276 2.76758 20.8044 2.76758 21.0401C2.76758 21.5706 3.06784 21.8063 3.18794 21.9242C3.18794 21.9242 3.18794 21.9242 3.248 21.9831C3.248 22.042 3.18794 22.042 3.18794 22.101C3.00779 22.3956 2.64747 22.985 2.82763 23.6333C3.00779 24.2226 3.4882 24.9299 4.6292 24.9299C4.68925 24.9299 4.7493 24.9299 4.86941 24.9299C6.19055 24.812 7.45165 24.5763 8.65269 24.2226L10.0939 30.9413L11.0548 30.7645L9.55348 23.928C10.0339 23.7512 10.5143 23.5744 10.9947 23.3386C13.0966 22.3367 13.6971 20.8044 13.7571 20.7455L12.8563 20.3918C12.7963 20.4508 12.3159 21.6884 10.5744 22.5135Z" fill="#F94BFD"/>
</svg>
