<svg width="28" height="33" viewBox="0 0 28 33" fill="none" xmlns="http://www.w3.org/2000/svg">
<path d="M28 20.9L24.3458 9.39583C23.615 3.07083 19.7325 0 12.4241 0C5.57259 0 0 5.59167 0 12.4667C0 15.2167 1.00489 17.5083 1.87276 19.525C2.3752 20.7167 2.83197 21.725 3.01468 22.6417C3.47145 25.0708 3.51713 32.5875 3.51713 32.6792V33H19.4127L18.4078 28.9667H18.4535H21.1941C23.478 28.9667 25.3051 27.1333 25.3051 24.8417L24.3915 20.9H28ZM24.6656 24.8875C24.6656 26.7667 23.1126 28.2792 21.2398 28.2792H18.4992H17.54H16.4437V28.9667H17.677L18.4992 32.3125H4.20228C4.20228 30.8 4.11093 24.7042 3.69984 22.5042C3.51713 21.4958 3.01468 20.3958 2.51223 19.2042C1.64437 17.2792 0.685155 15.0792 0.685155 12.4667C0.685155 5.95833 5.93801 0.6875 12.4241 0.6875C19.3214 0.6875 23.0212 3.575 23.6607 9.4875L27.0408 20.2125H23.5693L24.6656 24.8875Z" fill="#FFBB00"/>
<path d="M18.3621 7.83756C18.4535 7.6084 18.4992 7.3334 18.4992 7.0584C18.4992 5.9584 17.5856 5.04173 16.4437 5.04173C16.3524 5.04173 16.261 5.04173 16.1696 5.04173C15.9869 4.07923 15.1648 3.39173 14.1599 3.39173C13.7488 3.39173 13.3377 3.52923 13.0179 3.71257C12.6525 3.16257 12.013 2.7959 11.3279 2.7959C10.5057 2.7959 9.72919 3.3459 9.40945 4.12507C9.08971 3.94173 8.76997 3.8959 8.45023 3.8959C7.39966 3.8959 6.48612 4.67507 6.39477 5.72923C6.12071 5.63757 5.89232 5.5459 5.57258 5.5459C4.43066 5.5459 3.51712 6.46256 3.51712 7.56256C3.51712 7.97506 3.65415 8.2959 3.88253 8.5709C3.33441 8.93756 2.96899 9.62506 2.96899 10.3126C2.96899 11.0001 3.33441 11.5959 3.88253 11.9626C3.33441 12.3292 2.96899 12.9251 2.96899 13.6126C2.96899 14.7126 3.88253 15.6292 5.02446 15.6292H7.85643C8.7243 15.6292 9.5008 15.0792 9.77487 14.3001C9.82054 14.1167 9.72919 13.9334 9.59216 13.8417C9.40945 13.7959 9.22674 13.8876 9.13539 14.0251C8.95268 14.5292 8.45023 14.8959 7.85643 14.8959H5.02446C4.24795 14.8959 3.65415 14.3001 3.65415 13.5667C3.65415 12.8334 4.24795 12.2376 5.02446 12.2376H6.71451C6.89722 12.2376 7.07992 12.1001 7.07992 11.8709C7.07992 11.6417 6.94289 11.5042 6.71451 11.5042H5.02446C4.24795 11.5042 3.65415 10.9084 3.65415 10.1751C3.65415 9.62506 4.01956 9.07506 4.52201 8.8459H7.85643C8.67862 8.8459 9.3181 8.20423 9.3181 7.37923C9.3181 7.1959 9.18107 7.01257 8.95268 7.01257C8.7243 7.01257 8.58727 7.15006 8.58727 7.37923C8.58727 7.79173 8.22185 8.1584 7.81076 8.1584H4.52201C4.24795 7.8834 4.1566 7.70006 4.1566 7.37923C4.1566 6.6459 4.7504 6.05006 5.52691 6.05006C5.89232 6.05006 6.25774 6.18756 6.5318 6.46256C6.62315 6.55423 6.80586 6.60007 6.94289 6.5084C7.07992 6.41673 7.1256 6.27923 7.07992 6.0959C7.03425 5.9584 6.98857 5.8209 6.98857 5.6834C6.98857 4.95006 7.58237 4.35423 8.35888 4.35423C8.81565 4.35423 9.13539 4.67506 9.13539 5.1334C9.13539 5.31673 9.27242 5.50007 9.5008 5.50007C9.72919 5.50007 9.86622 5.36257 9.86622 5.1334C9.86622 4.9959 9.82054 4.90423 9.82054 4.76673C9.86622 4.7209 9.86622 4.67507 9.86622 4.62923C9.9119 3.8959 10.5514 3.30007 11.2365 3.30007C11.7847 3.30007 12.2871 3.6209 12.4698 4.12507C12.4698 4.1709 12.4698 4.26256 12.5155 4.3084C12.6068 4.49173 12.6068 4.67507 12.5612 4.8584C12.5155 5.04173 12.3328 5.22507 12.1501 5.31673C11.9674 5.4084 11.9217 5.59173 11.9674 5.77507C12.013 5.91257 12.1501 5.9584 12.2871 5.9584C12.3328 5.9584 12.3785 5.9584 12.4241 5.91256C12.7895 5.72923 13.0636 5.45423 13.155 5.04173C13.2463 4.76673 13.2463 4.4459 13.155 4.1709C13.5661 4.26257 13.8858 4.12507 14.2055 4.12507C14.9364 4.12507 15.4845 4.62923 15.5758 5.31673C14.8907 5.63757 14.4339 6.32506 14.4339 7.10423C14.4339 7.28756 14.571 7.4709 14.7993 7.4709C15.0277 7.4709 15.1648 7.3334 15.1648 7.10423C15.1648 6.55423 15.5302 6.05007 16.0783 5.86673C16.1696 5.8209 16.2153 5.8209 16.3067 5.8209C16.398 5.8209 16.4437 5.8209 16.5351 5.8209C17.3116 5.8209 17.9054 6.41673 17.9054 7.15006C17.9054 7.51673 17.7683 7.83756 17.4943 8.06673C17.3572 8.1584 17.3572 8.34173 17.4486 8.47923C17.54 8.61673 17.677 8.66256 17.8597 8.61673C18.0424 8.5709 18.1794 8.52506 18.2708 8.52506C18.8646 8.52506 20.1892 8.75423 20.2349 10.4042C20.2349 10.7709 20.0522 11.1834 19.7325 11.5042C19.2757 11.9626 18.5449 12.2834 17.7227 12.2834C17.54 12.2834 17.3572 12.4209 17.3572 12.6501C17.3572 12.8792 17.4943 13.0167 17.7227 13.0167C18.7276 13.0167 19.6411 12.6959 20.2349 12.0542C20.6917 11.5959 20.9201 11.0459 20.9201 10.4501C20.783 8.66256 19.5497 7.92923 18.3621 7.83756Z" fill="#FFBB00"/>
<path d="M6.98859 10.4041C6.98859 10.5875 7.12562 10.7708 7.354 10.7708C7.81077 10.7708 8.13051 11.0916 8.13051 11.55C8.13051 11.7333 8.26754 11.9166 8.49593 11.9166C8.72431 11.9166 8.86134 11.7791 8.86134 11.55C8.86134 10.7708 8.17619 10.0833 7.39968 10.0833C7.17129 10.0375 6.98859 10.2208 6.98859 10.4041Z" fill="#FFBB00"/>
<path d="M17.4029 15.3083L15.1647 8.06665H11.4192L13.429 13.1083H10.2773L18.1337 24.2917L14.9363 15.3083H17.4029ZM15.7585 19.8L11.5562 13.7958H14.4339L12.4241 8.75415H14.708L16.4894 14.6208H13.9314L15.7585 19.8Z" fill="#FFBB00"/>
</svg>
