<svg width="51" height="41" viewBox="0 0 51 41" fill="none" xmlns="http://www.w3.org/2000/svg">
<g clip-path="url(#clip0)">
<path d="M51 22.2609C51 15.0843 43.686 9.17018 34.3295 8.77147C31.6938 3.52188 25.1047 0 17.7248 0C7.97287 0 0 6.11345 0 13.5559C0 18.2739 3.29457 22.7261 8.63178 25.1848C8.5 28.6402 6.25969 31.6305 2.96512 32.6272L1.31783 33.1588L2.89922 33.6904C3.75581 33.9562 4.6783 34.0891 5.66667 34.0891C9.94961 34.0891 13.6395 31.0989 14.562 26.9125C15.2209 26.9789 15.8798 27.0454 16.6705 27.1118C19.2403 32.2285 25.5659 35.684 32.7481 35.8169C34.2636 39.0065 37.4922 41.0664 40.9845 41.0664C41.907 41.0664 42.8295 40.9335 43.7519 40.6677L45.3333 40.1361L43.7519 39.6045C41.5775 38.94 39.7326 37.2788 38.8101 35.1524C45.9922 33.2917 51 28.1086 51 22.2609ZM14.2326 25.7828L13.7054 25.7164L13.6395 26.248C12.9806 30.1686 9.62016 33.0259 5.66667 33.0259C5.4031 33.0259 5.13953 33.0259 4.87597 32.9595C7.77519 31.3647 9.68605 28.3079 9.68605 24.8525V24.5203L9.35659 24.3874C4.21705 22.0616 1.05426 17.9417 1.05426 13.5559C1.05426 6.64506 8.56589 1.06321 17.7248 1.06321C24.8411 1.06321 31.1667 4.45219 33.4729 9.43598C34.0659 10.765 34.3954 12.1605 34.3954 13.5559C34.3954 20.4668 26.8837 26.0486 17.7248 26.0486C17.593 26.0486 17.4612 26.0486 17.3295 26.0486H17.0659C16.0116 25.9822 15.0891 25.9157 14.2326 25.7828ZM37.9535 34.222L37.3605 34.3549L37.5581 34.953C38.3488 37.0794 39.8643 38.8736 41.8411 39.9368C41.5775 39.9368 41.314 40.0032 40.9845 40.0032C37.7558 40.0032 34.8566 38.0762 33.6047 35.0859L33.4729 34.7536H33.1434C26.4884 34.6872 20.4922 31.6969 17.9225 27.1118C18.0543 27.1118 18.186 27.1118 18.3178 27.1118C18.4496 27.1118 18.5814 27.1118 18.7132 27.1118C18.845 27.1118 19.0426 27.1118 19.1744 27.1118C19.3062 27.1118 19.438 27.1118 19.5698 27.1118C19.7016 27.1118 19.8992 27.1118 20.031 27.0454C20.1628 27.0454 20.2946 27.0454 20.4264 26.9789C20.5581 26.9789 20.7558 26.9125 20.8876 26.9125C21.0194 26.9125 21.1512 26.846 21.2829 26.846C21.4147 26.846 21.6124 26.7796 21.7442 26.7796C21.876 26.7796 22.0078 26.7131 22.1395 26.7131C22.2713 26.7131 22.469 26.6467 22.6008 26.6467C22.7326 26.6467 22.8643 26.5802 22.9961 26.5802C23.1279 26.5138 23.3256 26.5138 23.4574 26.4473C23.5891 26.4473 23.7209 26.3809 23.8527 26.3809C23.9845 26.3144 24.1163 26.3144 24.314 26.248C24.4457 26.1815 24.5775 26.1815 24.7093 26.1151C24.8411 26.0486 24.9729 26.0486 25.1047 25.9822C25.2364 25.9157 25.3682 25.9157 25.4341 25.8493C25.5659 25.7828 25.6977 25.7164 25.8295 25.7164C25.9612 25.6499 26.0271 25.6499 26.1589 25.5835C26.2907 25.517 26.4225 25.4506 26.5543 25.3841C26.686 25.3177 26.7519 25.3177 26.8837 25.2512C27.0155 25.1848 27.1473 25.1183 27.2791 25.0519C27.4109 24.9854 27.4767 24.919 27.6085 24.919C27.7403 24.8525 27.8721 24.7861 28.0039 24.7196C28.1357 24.6532 28.2016 24.5867 28.3333 24.5203C28.4651 24.4538 28.5969 24.3874 28.7287 24.3209C28.7946 24.2545 28.9264 24.188 28.9922 24.1216C29.124 24.0551 29.2558 23.9887 29.3876 23.8558C29.4535 23.7893 29.5853 23.7229 29.6512 23.6564C29.7829 23.59 29.9147 23.4571 29.9806 23.3906C30.0465 23.3242 30.1783 23.2577 30.2442 23.1912C30.376 23.1248 30.4419 22.9919 30.5736 22.9254C30.6395 22.859 30.7713 22.7925 30.8372 22.7261C30.969 22.6596 31.0349 22.5267 31.1667 22.4603C31.2326 22.3938 31.3643 22.3274 31.4302 22.2609C31.562 22.1945 31.6279 22.0616 31.6938 21.9951C31.7597 21.9287 31.8256 21.8622 31.9574 21.7958C32.0233 21.7293 32.155 21.5964 32.2209 21.53C32.2868 21.4635 32.3527 21.3971 32.4186 21.2642C32.4845 21.1313 32.6163 21.0648 32.6822 20.9319C32.7481 20.8655 32.814 20.799 32.8798 20.6661C32.9457 20.5332 33.0116 20.4668 33.1434 20.3339C33.2093 20.2674 33.2752 20.201 33.3411 20.0681C33.407 19.9352 33.4729 19.8687 33.5388 19.7358C33.6047 19.6694 33.6705 19.5365 33.7364 19.47C33.8023 19.3371 33.8682 19.2707 33.9341 19.1378C34 19.0713 34.0659 18.9384 34.0659 18.872C34.1318 18.7391 34.1977 18.6062 34.2636 18.5397C34.3295 18.4733 34.3295 18.3404 34.3954 18.2739C34.4612 18.141 34.5271 18.0081 34.5271 17.9417C34.593 17.8752 34.593 17.7423 34.6589 17.6758C34.7248 17.5429 34.7248 17.41 34.7907 17.3436C34.8566 17.2771 34.8566 17.1442 34.9225 17.0778C34.9884 16.9449 34.9884 16.812 35.0543 16.6791C35.0543 16.6126 35.1202 16.4797 35.1202 16.4133C35.186 16.2804 35.186 16.1475 35.186 16.0146C35.186 15.9481 35.2519 15.8152 35.2519 15.7488C35.2519 15.6159 35.3178 15.483 35.3178 15.3501C35.3178 15.2836 35.3178 15.1507 35.3837 15.0843C35.3837 14.9514 35.4496 14.752 35.4496 14.6191C35.4496 14.5527 35.4496 14.4862 35.4496 14.4198C35.4496 14.2204 35.4496 13.9546 35.4496 13.7553C35.4496 13.423 35.4496 13.0243 35.3837 12.6921C35.3837 12.5592 35.3837 12.4927 35.3178 12.3598C35.2519 12.094 35.2519 11.8947 35.186 11.6288C35.186 11.4959 35.1202 11.363 35.1202 11.2301C35.0543 11.0308 34.9884 10.765 34.9225 10.5656C34.9225 10.2334 34.9225 10.1005 34.8566 9.96758C34.8566 9.90113 34.7907 9.83468 34.7907 9.76823C43.3566 10.3663 49.9457 15.6823 49.9457 22.1945C49.9457 27.7099 45.0039 32.6937 37.9535 34.222Z" fill="#F39313"/>
<path d="M11.7286 13.0244H10.0154V14.0876H11.7286V13.0244Z" fill="#F39313"/>
<path d="M15.1551 13.0244H13.4419V14.0876H15.1551V13.0244Z" fill="#F39313"/>
<path d="M18.5814 13.0244H16.8682V14.0876H18.5814V13.0244Z" fill="#F39313"/>
<path d="M22.0737 13.0244H20.3605V14.0876H22.0737V13.0244Z" fill="#F39313"/>
<path d="M25.5 13.0244H23.7868V14.0876H25.5V13.0244Z" fill="#F39313"/>
<path d="M35.845 21.7292H34.1319V22.7925H35.845V21.7292Z" fill="#F39313"/>
<path d="M39.2713 21.7292H37.5581V22.7925H39.2713V21.7292Z" fill="#F39313"/>
<path d="M42.6976 21.7292H40.9844V22.7925H42.6976V21.7292Z" fill="#F39313"/>
</g>
<defs>
<clipPath id="clip0">
<rect width="51" height="41" fill="white"/>
</clipPath>
</defs>
</svg>
