<svg width="31" height="41" viewBox="0 0 31 41" fill="none" xmlns="http://www.w3.org/2000/svg">
<path d="M25.7283 0H5.27172C2.34935 0 0 2.33148 0 5.23162V35.7115C0 38.6117 2.34935 40.9431 5.27172 40.9431H25.671C28.5933 40.9431 30.9427 38.6117 30.9427 35.7115V5.23162C31 2.33148 28.6506 0 25.7283 0ZM30.0832 35.7684C30.0832 38.1567 28.1349 40.0902 25.7283 40.0902H5.27172C2.86506 40.0902 0.916821 38.1567 0.916821 35.7684V5.23162C0.916821 2.84327 2.86506 0.909847 5.27172 0.909847H25.671C28.0776 0.909847 30.0259 2.84327 30.0259 5.23162V35.7684H30.0832Z" fill="#31B4F5"/>
<path d="M9.0536 17.5146H8.19408V19.6187H6.01663V20.5285H8.19408V22.6325H9.0536V20.5285H11.1737V19.6187H9.0536V17.5146Z" fill="#31B4F5"/>
<path d="M10.8872 14.9557H6.36045C4.75601 14.9557 3.43808 16.2636 3.43808 17.8558V22.3482C3.43808 23.9404 4.75601 25.2483 6.36045 25.2483H10.8872C12.4917 25.2483 13.8096 23.9404 13.8096 22.3482V17.8558C13.8096 16.2067 12.4917 14.9557 10.8872 14.9557ZM12.8928 22.2913C12.8928 23.3718 11.976 24.2816 10.8872 24.2816H6.36045C5.27172 24.2816 4.3549 23.3718 4.3549 22.2913V17.799C4.3549 16.7185 5.27172 15.8087 6.36045 15.8087H10.8872C11.976 15.8087 12.8928 16.7185 12.8928 17.799V22.2913Z" fill="#31B4F5"/>
<path d="M10.6007 30.2523L8.59519 32.2426L6.64695 30.2523L6.01663 30.8778L7.96488 32.8681L6.01663 34.8584L6.64695 35.4839L8.59519 33.4937L10.6007 35.4839L11.2311 34.8584L9.28281 32.8681L11.2311 30.8778L10.6007 30.2523Z" fill="#31B4F5"/>
<path d="M10.8872 27.7505H6.36045C4.75601 27.7505 3.43808 29.0015 3.43808 30.6506V35.143C3.43808 36.7352 4.75601 38.0431 6.36045 38.0431H10.8872C12.4917 38.0431 13.8096 36.7352 13.8096 35.143V30.6506C13.8096 29.0015 12.4917 27.7505 10.8872 27.7505ZM12.8928 35.0861C12.8928 36.1666 11.976 37.0764 10.8872 37.0764H6.36045C5.27172 37.0764 4.3549 36.1666 4.3549 35.0861V30.5938C4.3549 29.5133 5.27172 28.6035 6.36045 28.6035H10.8872C11.976 28.6035 12.8928 29.5133 12.8928 30.5938V35.0861Z" fill="#31B4F5"/>
<path d="M24.6396 14.9557H20.1128C18.5083 14.9557 17.1904 16.2636 17.1904 17.8558V22.3482C17.1904 23.9404 18.5083 25.2483 20.1128 25.2483H24.6396C26.244 25.2483 27.5619 23.9404 27.5619 22.3482V17.8558C27.5619 16.2067 26.244 14.9557 24.6396 14.9557ZM26.6451 22.2913C26.6451 23.3718 25.7283 24.2816 24.6396 24.2816H20.1128C19.024 24.2816 18.1072 23.3718 18.1072 22.2913V17.799C18.1072 16.7185 19.024 15.8087 20.1128 15.8087H24.6396C25.7283 15.8087 26.6451 16.7185 26.6451 17.799V22.2913Z" fill="#31B4F5"/>
<path d="M24.9261 19.6185H19.769V20.5284H24.9261V19.6185Z" fill="#31B4F5"/>
<path d="M24.6396 27.7505H20.1128C18.5083 27.7505 17.1904 29.0584 17.1904 30.6506V35.143C17.1904 36.7352 18.5083 38.0431 20.1128 38.0431H24.6396C26.244 38.0431 27.5619 36.7352 27.5619 35.143V30.6506C27.5619 29.0015 26.244 27.7505 24.6396 27.7505ZM26.6451 35.0861C26.6451 36.1666 25.7283 37.0764 24.6396 37.0764H20.1128C19.024 37.0764 18.1072 36.1666 18.1072 35.0861V30.5938C18.1072 29.5133 19.024 28.6035 20.1128 28.6035H24.6396C25.7283 28.6035 26.6451 29.5133 26.6451 30.5938V35.0861Z" fill="#31B4F5"/>
<path d="M24.9261 31.1624H19.769V32.0722H24.9261V31.1624Z" fill="#31B4F5"/>
<path d="M24.9261 33.7213H19.769V34.6312H24.9261V33.7213Z" fill="#31B4F5"/>
<path d="M25.1554 3.41199H5.84481C4.29768 3.41199 3.03705 4.66303 3.03705 6.1984V10.4633C3.03705 11.9987 4.29768 13.2497 5.84481 13.2497H25.2127C26.7598 13.2497 28.0204 11.9987 28.0204 10.4633V6.1984C27.9631 4.66303 26.7025 3.41199 25.1554 3.41199ZM27.1036 10.4633C27.1036 11.4869 26.2441 12.3399 25.2127 12.3399H11.8614L14.4973 9.72405L13.867 9.09853L10.5435 12.3967H5.78751C4.75609 12.3967 3.89657 11.5437 3.89657 10.5202V6.25526C3.89657 5.23168 4.75609 4.3787 5.78751 4.3787H13.0648L9.5694 7.84749L10.1997 8.47301L14.3254 4.32183H25.098C26.1295 4.32183 26.989 5.17482 26.989 6.1984V10.4633H27.1036Z" fill="#31B4F5"/>
<path d="M21.6096 5.24535L16.867 9.94788L17.515 10.5915L22.2576 5.88898L21.6096 5.24535Z" fill="#31B4F5"/>
</svg>
