<svg width="669" height="149" viewBox="0 0 669 149" fill="none" xmlns="http://www.w3.org/2000/svg">
<path d="M134.5 0.460045L133.14 7.41006C133.124 7.49918 133.086 7.58303 133.03 7.65444C132.975 7.72585 132.903 7.78267 132.82 7.82003L126.08 10.82C125.987 10.8667 125.91 10.9382 125.855 11.0265C125.801 11.1147 125.772 11.2164 125.772 11.32C125.772 11.4237 125.801 11.5253 125.855 11.6136C125.91 11.7019 125.987 11.7733 126.08 11.82L132.57 15.15C132.657 15.1945 132.731 15.2616 132.784 15.3442C132.837 15.4268 132.867 15.522 132.87 15.62L133.31 23.18C133.302 23.2999 133.334 23.4189 133.4 23.5191C133.467 23.6192 133.564 23.6949 133.677 23.7346C133.791 23.7743 133.914 23.7757 134.028 23.7388C134.142 23.7019 134.241 23.6286 134.31 23.5301C135.99 21.7101 139.46 18 139.86 18.06L146.97 19.46C147.076 19.4824 147.185 19.4732 147.286 19.4335C147.386 19.3938 147.473 19.3255 147.535 19.237C147.596 19.1485 147.631 19.0437 147.634 18.9358C147.636 18.8279 147.607 18.7215 147.55 18.63L143.77 12.32C143.707 12.2271 143.673 12.1174 143.673 12.005C143.673 11.8927 143.707 11.7829 143.77 11.69L148.43 5.59005C148.498 5.50273 148.539 5.39716 148.547 5.28677C148.555 5.17637 148.53 5.06606 148.476 4.96975C148.421 4.87344 148.339 4.79548 148.24 4.74569C148.141 4.6959 148.03 4.67654 147.92 4.69003L140.44 5.6C140.349 5.60997 140.257 5.59791 140.172 5.56484C140.087 5.53177 140.01 5.47872 139.95 5.41006L135.51 0.170006C135.442 0.0776743 135.348 0.00834928 135.239 -0.0286633C135.131 -0.0656758 135.014 -0.0685676 134.904 -0.036964C134.794 -0.00536052 134.696 0.0592285 134.624 0.148095C134.552 0.236961 134.508 0.345842 134.5 0.460045Z" fill="#F59E0B"/>
<path d="M94.82 9.63L-3.05176e-05 57.98L23.6999 70.13V97.44C21.9786 97.8655 20.4213 98.79 19.2236 100.097C18.0259 101.405 17.2412 103.037 16.9677 104.789C16.6943 106.541 16.9442 108.334 17.6865 109.945C18.4288 111.555 19.6304 112.91 21.1401 113.84L18.32 129.28H33.5901L30.9399 113.73C32.4132 112.775 33.5751 111.41 34.2822 109.803C34.9893 108.196 35.2109 106.417 34.9196 104.685C34.6284 102.954 33.837 101.345 32.643 100.058C31.4491 98.7705 29.9046 97.8606 28.1999 97.44V72.44L56.25 86.81C58.2773 87.832 60.0462 89.3008 61.4233 91.1058C62.8004 92.9107 63.7497 95.0047 64.1999 97.23C64.9051 101.059 65.24 104.947 65.1999 108.84C65.0182 122.307 62.4063 135.631 57.49 148.17C107.15 59.49 47.79 43.04 47.79 43.04C77.23 41.63 97.6201 66.57 97.6201 66.57C118.5 59.28 133.44 36.83 133.44 36.83C126.44 91.51 72.9699 136.83 72.9699 136.83C105.91 120.47 126.85 90.94 126.85 90.94L191.32 58.12L94.82 9.63ZM99.6999 54.92C97.7672 54.92 95.8778 54.3468 94.271 53.2728C92.6641 52.1988 91.412 50.6724 90.6728 48.8865C89.9336 47.1007 89.7406 45.1358 90.1184 43.2403C90.4962 41.3448 91.4278 39.604 92.7951 38.238C94.1625 36.8721 95.9042 35.9424 97.8 35.5665C99.6959 35.1907 101.661 35.3856 103.446 36.1266C105.231 36.8676 106.756 38.1214 107.828 39.7294C108.901 41.3374 109.472 43.2273 109.47 45.16C109.459 47.7433 108.425 50.2171 106.594 52.0391C104.762 53.8611 102.283 54.8827 99.6999 54.88V54.92Z" fill="#8B5CF6"/>
<path d="M217.58 42.8059C219.984 38.5539 223.509 35.0431 227.77 32.6559C232.195 30.1961 237.187 28.9378 242.25 29.0059C248.086 28.8867 253.817 30.5622 258.67 33.8059C263.362 37.0048 266.837 41.695 268.53 47.1159H255.62C254.48 44.6052 252.59 42.5092 250.21 41.1159C247.75 39.7497 244.973 39.0596 242.16 39.1159C239.105 39.0588 236.094 39.8479 233.46 41.396C230.906 42.936 228.845 45.1738 227.52 47.8459C226.123 50.9118 225.4 54.2418 225.4 57.6109C225.4 60.9801 226.123 64.3101 227.52 67.3759C228.835 70.065 230.898 72.3182 233.46 73.8659C236.093 75.417 239.104 76.2095 242.16 76.1559C244.979 76.2107 247.76 75.5024 250.21 74.1059C252.581 72.7021 254.468 70.6091 255.62 68.1059H268.53C266.87 73.543 263.406 78.2519 258.71 81.456C253.837 84.6936 248.089 86.3585 242.24 86.2259C237.177 86.2941 232.185 85.0358 227.76 82.576C223.504 80.1888 219.984 76.682 217.58 72.4359C215.132 67.896 213.85 62.8188 213.85 57.6609C213.85 52.503 215.132 47.4259 217.58 42.886V42.8059Z" fill="#19194F"/>
<path d="M286.33 83.5659C282.935 81.6957 280.14 78.9008 278.27 75.5059C276.272 71.8271 275.266 67.6915 275.35 63.5059C275.271 59.3109 276.306 55.17 278.35 51.5059C280.286 48.106 283.133 45.3144 286.57 43.4459C290.161 41.5798 294.148 40.6056 298.195 40.6056C302.242 40.6056 306.229 41.5798 309.82 43.4459C313.257 45.3144 316.104 48.106 318.04 51.5059C320.084 55.17 321.119 59.3109 321.04 63.5059C321.12 67.7112 320.055 71.8591 317.96 75.5059C315.976 78.9097 313.09 81.699 309.62 83.5659C306.007 85.4936 301.965 86.4741 297.87 86.4159C293.842 86.4768 289.867 85.4951 286.33 83.5659ZM303.61 75.1459C305.446 74.116 306.938 72.5683 307.9 70.6959C309.023 68.4626 309.573 65.9848 309.5 63.4859C309.5 59.2659 308.39 56.0192 306.17 53.7459C305.122 52.6463 303.858 51.7757 302.457 51.1888C301.056 50.6019 299.549 50.3115 298.03 50.3359C296.524 50.3043 295.028 50.5918 293.64 51.1795C292.253 51.7672 291.005 52.6418 289.98 53.7459C287.807 56.0126 286.723 59.2592 286.73 63.4859C286.737 67.7126 287.793 70.9592 289.9 73.2259C290.91 74.3364 292.147 75.2159 293.528 75.8044C294.908 76.3929 296.4 76.6766 297.9 76.6359C299.899 76.6353 301.865 76.1223 303.61 75.1459Z" fill="#19194F"/>
<path d="M397.65 45.646C400.983 48.9793 402.65 53.646 402.65 59.646V85.706H391.42V61.1559C391.42 57.6826 390.54 55.0159 388.78 53.1559C387.838 52.2143 386.708 51.4811 385.464 51.0039C384.221 50.5267 382.89 50.3162 381.56 50.3859C380.225 50.3188 378.892 50.5304 377.643 51.0073C376.395 51.4843 375.26 52.216 374.31 53.1559C372.523 54.9959 371.627 57.6626 371.62 61.1559V85.6959H360.4V61.1559C360.4 57.6859 359.51 55.0259 357.75 53.1559C356.81 52.214 355.682 51.4806 354.44 51.0034C353.198 50.5261 351.869 50.3157 350.54 50.3859C349.191 50.3123 347.842 50.5206 346.578 50.9975C345.314 51.4745 344.164 52.2095 343.2 53.1559C341.413 54.9959 340.517 57.6626 340.51 61.1559V85.6959H329.29V41.2759H340.51V46.646C341.99 44.7499 343.903 43.2373 346.09 42.2359C348.436 41.1513 350.995 40.6047 353.58 40.6359C356.816 40.5759 360.014 41.3326 362.88 42.836C365.567 44.2631 367.77 46.4557 369.21 49.1359C370.695 46.531 372.877 44.3911 375.51 42.956C378.236 41.4139 381.318 40.6139 384.45 40.6359C389.91 40.6359 394.31 42.306 397.65 45.646Z" fill="#19194F"/>
<path d="M447.87 29.7359V38.8059H424.54V53.1559H442.42V62.0559H424.54V85.7059H413.32V29.7059L447.87 29.7359Z" fill="#19194F"/>
<path d="M497.77 41.2759V85.6959H486.46V80.0759C484.985 82.035 483.043 83.5925 480.81 84.6059C478.442 85.7159 475.855 86.2798 473.24 86.2559C470.028 86.319 466.854 85.5582 464.02 84.0459C461.323 82.5551 459.13 80.296 457.72 77.5559C456.129 74.3892 455.346 70.8784 455.44 67.3359V41.2759H466.66V65.7259C466.66 69.2559 467.55 71.9659 469.31 73.8659C470.238 74.8285 471.362 75.5809 472.606 76.0725C473.85 76.5641 475.184 76.7835 476.52 76.7159C477.87 76.7893 479.22 76.573 480.479 76.0814C481.738 75.5898 482.877 74.8344 483.82 73.8659C485.58 71.9659 486.46 69.2526 486.46 65.7259V41.2759H497.77Z" fill="#19194F"/>
<path d="M521.87 50.4959V71.9859C521.815 72.5714 521.883 73.1619 522.069 73.7197C522.255 74.2776 522.555 74.7906 522.95 75.2259C524.002 75.9962 525.302 76.3522 526.6 76.2259H531.77V85.6859H524.77C515.31 85.6859 510.58 81.0893 510.58 71.8959V50.4959H505.28V41.2759H510.58V30.2759H521.88V41.2759H531.77V50.4959H521.87Z" fill="#19194F"/>
<path d="M581.84 41.2759V85.6959H570.53V80.0759C569.055 82.035 567.113 83.5925 564.88 84.6059C562.512 85.7159 559.925 86.2798 557.31 86.2559C554.098 86.319 550.924 85.5582 548.09 84.0459C545.393 82.5551 543.2 80.296 541.79 77.5559C540.199 74.3892 539.416 70.8784 539.51 67.3359V41.2759H550.77V65.7259C550.77 69.2592 551.653 71.9726 553.42 73.8659C554.348 74.8285 555.472 75.5809 556.716 76.0725C557.96 76.5641 559.294 76.7835 560.63 76.7159C561.98 76.7887 563.329 76.5721 564.588 76.0805C565.847 75.589 566.987 74.8339 567.93 73.8659C569.69 71.9659 570.57 69.2526 570.57 65.7259V41.2759H581.84Z" fill="#19194F"/>
<path d="M609.77 42.6359C612.212 41.2706 614.973 40.5803 617.77 40.6359V52.4159H614.77C611.237 52.4159 608.57 53.2459 606.77 54.9059C604.98 56.5659 604.09 59.4459 604.09 63.5659V85.6959H592.86V41.2759H604.09V48.1759C605.478 45.8734 607.434 43.9658 609.77 42.6359Z" fill="#19194F"/>
<path d="M633.47 83.5659C630.075 81.6957 627.28 78.9008 625.41 75.5059C623.408 71.8279 622.399 67.6924 622.48 63.5059C622.4 59.3109 623.436 55.17 625.48 51.5059C627.41 48.1021 630.259 45.3092 633.7 43.4459C637.291 41.5798 641.278 40.6056 645.325 40.6056C649.372 40.6056 653.359 41.5798 656.95 43.4459C660.386 45.3125 663.23 48.1047 665.16 51.5059C667.208 55.1682 668.244 59.3104 668.16 63.5059C668.242 67.7127 667.174 71.862 665.07 75.5059C663.092 78.9113 660.209 81.7014 656.74 83.5659C653.127 85.4936 649.084 86.4741 644.99 86.4159C640.968 86.4743 637 85.4926 633.47 83.5659ZM650.74 75.1459C652.576 74.116 654.068 72.5683 655.03 70.6959C656.159 68.4644 656.713 65.9859 656.64 63.4859C656.64 59.2659 655.53 56.0192 653.31 53.7459C652.262 52.6463 650.998 51.7757 649.597 51.1888C648.196 50.6019 646.688 50.3115 645.17 50.3359C643.663 50.303 642.167 50.5899 640.779 51.1777C639.392 51.7655 638.145 52.6408 637.12 53.7459C634.947 56.0126 633.863 59.2592 633.87 63.4859C633.877 67.7126 634.93 70.9592 637.03 73.2259C638.04 74.3354 639.278 75.2142 640.658 75.8026C642.039 76.391 643.53 76.6753 645.03 76.6359C647.04 76.6422 649.017 76.129 650.77 75.1459H650.74Z" fill="#19194F"/>
</svg>
