<svg width="269" height="60" viewBox="0 0 269 60" fill="none" xmlns="http://www.w3.org/2000/svg">
<path d="M53.9785 0.208193L53.4328 2.99743C53.4263 3.0332 53.4112 3.06685 53.3888 3.09551C53.3664 3.12417 53.3374 3.14697 53.3043 3.16196L50.5994 4.36595C50.5622 4.38468 50.531 4.41336 50.5091 4.44879C50.4873 4.48422 50.4758 4.52501 50.4758 4.56661C50.4758 4.60821 50.4873 4.649 50.5091 4.68443C50.531 4.71986 50.5622 4.74854 50.5994 4.76727L53.204 6.1037C53.2391 6.12156 53.2687 6.14846 53.2898 6.18162C53.311 6.21479 53.323 6.253 53.3244 6.29232L53.501 9.32636C53.4979 9.37445 53.5106 9.42224 53.5372 9.46243C53.5638 9.50261 53.6029 9.533 53.6483 9.54892C53.6938 9.56484 53.7433 9.56543 53.7891 9.55061C53.835 9.53579 53.8747 9.50637 53.9023 9.46684C54.5765 8.73642 55.9692 7.24748 56.1297 7.27156L58.9831 7.83343C59.0255 7.8424 59.0696 7.83869 59.1099 7.82277C59.1502 7.80685 59.1849 7.77942 59.2097 7.7439C59.2345 7.70838 59.2484 7.66635 59.2495 7.62304C59.2506 7.57972 59.2389 7.53704 59.2159 7.50032L57.6989 4.96794C57.6735 4.93066 57.66 4.88661 57.66 4.84152C57.66 4.79643 57.6735 4.75238 57.6989 4.7151L59.569 2.26701C59.5963 2.23196 59.6127 2.1896 59.6159 2.14529C59.6192 2.10099 59.6092 2.05671 59.5873 2.01806C59.5654 1.97941 59.5326 1.94812 59.4929 1.92814C59.4532 1.90816 59.4084 1.90039 59.3643 1.9058L56.3624 2.271C56.3259 2.275 56.289 2.27016 56.2548 2.25689C56.2206 2.24362 56.19 2.22233 56.1658 2.19477L54.3839 0.0917926C54.3567 0.0547372 54.3188 0.0269151 54.2753 0.0120609C54.2318 -0.00279324 54.1849 -0.00395379 54.1407 0.0087296C54.0965 0.021413 54.0573 0.0473344 54.0283 0.0829988C53.9993 0.118663 53.9819 0.16236 53.9785 0.208193Z" fill="white"/>
<path d="M38.054 3.88867L0 23.2929L9.51146 28.169V39.1293C8.82065 39.3001 8.19567 39.6711 7.71498 40.1958C7.2343 40.7205 6.91939 41.3755 6.80964 42.0786C6.69989 42.7817 6.80019 43.5015 7.0981 44.1478C7.396 44.794 7.87824 45.3379 8.48413 45.7111L7.35236 51.9076H13.4806L12.4171 45.6669C13.0083 45.2836 13.4746 44.7357 13.7584 44.0908C14.0422 43.4458 14.1311 42.7319 14.0142 42.037C13.8974 41.3421 13.5798 40.6966 13.1006 40.1799C12.6214 39.6633 12.0016 39.2981 11.3174 39.1293V29.0961L22.5747 34.8632C23.3883 35.2733 24.0982 35.8628 24.6509 36.5872C25.2036 37.3116 25.5846 38.152 25.7652 39.045C26.0483 40.5817 26.1827 42.142 26.1666 43.7044C26.0936 49.1092 25.0454 54.4564 23.0723 59.4887C43.0023 23.8989 19.1795 17.297 19.1795 17.297C30.9946 16.7312 39.1777 26.7403 39.1777 26.7403C47.5574 23.8146 53.5532 14.8048 53.5532 14.8048C50.7439 36.7494 29.2849 54.9376 29.2849 54.9376C42.5046 48.3719 50.9085 36.5207 50.9085 36.5207L76.7821 23.3491L38.054 3.88867ZM40.0124 22.0648C39.2367 22.0648 38.4785 21.8348 37.8336 21.4037C37.1887 20.9727 36.6862 20.3601 36.3896 19.6434C36.0929 18.9267 36.0154 18.1381 36.167 17.3774C36.3187 16.6167 36.6925 15.9181 37.2413 15.3699C37.7901 14.8217 38.489 14.4486 39.2499 14.2977C40.0108 14.1469 40.7993 14.2251 41.5157 14.5225C42.2321 14.8199 42.8442 15.3231 43.2746 15.9684C43.7049 16.6137 43.9342 17.3722 43.9334 18.1479C43.9291 19.1846 43.514 20.1774 42.7791 20.9086C42.0441 21.6398 41.0492 22.0498 40.0124 22.0488V22.0648Z" fill="white"/>
<path d="M87.3211 17.2028C88.2858 15.4964 89.7003 14.0874 91.4106 13.1293C93.1866 12.1421 95.1901 11.6371 97.2218 11.6645C99.5638 11.6167 101.864 12.2891 103.812 13.5909C105.695 14.8747 107.089 16.757 107.769 18.9325H102.588C102.13 17.9249 101.371 17.0837 100.416 16.5246C99.4293 15.9762 98.3145 15.6993 97.1856 15.7219C95.9597 15.699 94.7513 16.0157 93.6941 16.637C92.6691 17.255 91.842 18.1531 91.3102 19.2255C90.7496 20.4559 90.4595 21.7923 90.4595 23.1445C90.4595 24.4966 90.7496 25.833 91.3102 27.0635C91.8381 28.1426 92.6658 29.0469 93.6941 29.6681C94.7509 30.2905 95.9593 30.6086 97.1856 30.5871C98.317 30.6091 99.4333 30.3248 100.416 29.7644C101.368 29.201 102.125 28.361 102.588 27.3564H107.769C107.102 29.5385 105.712 31.4283 103.828 32.7142C101.872 34.0135 99.565 34.6817 97.2178 34.6285C95.186 34.6558 93.1826 34.1508 91.4066 33.1636C89.6987 32.2056 88.2858 30.7982 87.3211 29.0942C86.3386 27.2722 85.8242 25.2346 85.8242 23.1645C85.8242 21.0945 86.3386 19.0569 87.3211 17.2349V17.2028Z" fill="white"/>
<path d="M114.912 33.5605C113.55 32.8099 112.428 31.6883 111.677 30.3258C110.876 28.8494 110.472 27.1897 110.506 25.5099C110.474 23.8263 110.889 22.1645 111.71 20.6939C112.486 19.3295 113.629 18.2091 115.009 17.4592C116.45 16.7103 118.05 16.3193 119.674 16.3193C121.298 16.3193 122.898 16.7103 124.339 17.4592C125.719 18.2091 126.861 19.3295 127.638 20.6939C128.459 22.1645 128.874 23.8263 128.842 25.5099C128.874 27.1976 128.447 28.8622 127.606 30.3258C126.81 31.6919 125.652 32.8113 124.259 33.5605C122.809 34.3341 121.187 34.7276 119.544 34.7043C117.927 34.7288 116.332 34.3348 114.912 33.5605ZM121.847 30.1813C122.584 29.768 123.183 29.1469 123.569 28.3954C124.02 27.4992 124.24 26.5047 124.211 25.5018C124.211 23.8082 123.765 22.5053 122.874 21.5929C122.454 21.1516 121.947 20.8022 121.384 20.5667C120.822 20.3311 120.217 20.2146 119.608 20.2244C119.003 20.2117 118.403 20.3271 117.846 20.5629C117.289 20.7988 116.789 21.1498 116.377 21.5929C115.505 22.5026 115.07 23.8056 115.073 25.5018C115.075 27.1981 115.499 28.5011 116.345 29.4108C116.75 29.8565 117.247 30.2094 117.801 30.4456C118.355 30.6818 118.953 30.7956 119.556 30.7793C120.358 30.7791 121.147 30.5732 121.847 30.1813Z" fill="white"/>
<path d="M159.588 18.3421C160.926 19.6798 161.595 21.5527 161.595 23.9607V34.4193H157.088V24.5666C157.088 23.1727 156.735 22.1025 156.028 21.356C155.65 20.9781 155.197 20.6839 154.698 20.4924C154.198 20.3009 153.665 20.2164 153.131 20.2444C152.595 20.2174 152.06 20.3023 151.559 20.4937C151.058 20.6851 150.602 20.9788 150.221 21.356C149.504 22.0945 149.144 23.1647 149.142 24.5666V34.4152H144.639V24.5666C144.639 23.174 144.281 22.1065 143.575 21.356C143.198 20.978 142.745 20.6837 142.247 20.4922C141.748 20.3006 141.215 20.2162 140.682 20.2444C140.14 20.2148 139.599 20.2984 139.092 20.4898C138.584 20.6812 138.123 20.9762 137.736 21.356C137.019 22.0945 136.659 23.1647 136.656 24.5666V34.4152H132.153V16.5882H136.656V18.7434C137.25 17.9824 138.018 17.3754 138.896 16.9735C139.837 16.5382 140.864 16.3189 141.902 16.3314C143.2 16.3073 144.484 16.611 145.634 17.2143C146.712 17.7871 147.596 18.667 148.174 19.7427C148.77 18.6973 149.646 17.8385 150.703 17.2625C151.797 16.6436 153.034 16.3226 154.291 16.3314C156.482 16.3314 158.248 17.0016 159.588 18.3421Z" fill="white"/>
<path d="M179.743 11.9583V15.5984H170.38V21.3574H177.556V24.9292H170.38V34.4207H165.877V11.9463L179.743 11.9583Z" fill="white"/>
<path d="M199.769 16.5889V34.4159H195.23V32.1604C194.638 32.9466 193.859 33.5717 192.963 33.9784C192.012 34.4239 190.974 34.6502 189.925 34.6406C188.636 34.666 187.362 34.3606 186.224 33.7537C185.142 33.1554 184.262 32.2488 183.696 31.1491C183.058 29.8782 182.743 28.4692 182.781 27.0475V16.5889H187.284V26.4013C187.284 27.818 187.641 28.9056 188.347 29.6682C188.72 30.0545 189.171 30.3564 189.67 30.5537C190.169 30.751 190.705 30.8391 191.241 30.8119C191.783 30.8414 192.324 30.7546 192.83 30.5573C193.335 30.36 193.792 30.0569 194.171 29.6682C194.877 28.9056 195.23 27.8167 195.23 26.4013V16.5889H199.769Z" fill="white"/>
<path d="M209.441 20.2887V28.9132C209.419 29.1482 209.446 29.3852 209.521 29.6091C209.596 29.833 209.716 30.0388 209.875 30.2135C210.297 30.5227 210.819 30.6655 211.34 30.6149H213.414V34.4114H210.605C206.809 34.4114 204.91 32.5667 204.91 28.8771V20.2887H202.783V16.5884H204.91V12.1738H209.445V16.5884H213.414V20.2887H209.441Z" fill="white"/>
<path d="M233.509 16.5889V34.4159H228.97V32.1604C228.378 32.9466 227.598 33.5717 226.702 33.9784C225.752 34.4239 224.714 34.6502 223.664 34.6406C222.375 34.666 221.101 34.3606 219.964 33.7537C218.881 33.1554 218.001 32.2488 217.435 31.1491C216.797 29.8782 216.483 28.4692 216.52 27.0475V16.5889H221.039V26.4013C221.039 27.8194 221.394 28.9083 222.103 29.6682C222.475 30.0545 222.927 30.3564 223.426 30.5537C223.925 30.751 224.46 30.8391 224.996 30.8119C225.538 30.8412 226.08 30.7542 226.585 30.5569C227.09 30.3597 227.548 30.0566 227.926 29.6682C228.632 28.9056 228.986 27.8167 228.986 26.4013V16.5889H233.509Z" fill="white"/>
<path d="M244.718 17.134C245.698 16.586 246.806 16.309 247.928 16.3313V21.059H246.724C245.306 21.059 244.236 21.3921 243.514 22.0583C242.795 22.7245 242.438 23.8803 242.438 25.5338V34.4152H237.931V16.5882H242.438V19.3573C242.995 18.4333 243.78 17.6677 244.718 17.134Z" fill="white"/>
<path d="M254.229 33.5605C252.867 32.8099 251.745 31.6883 250.995 30.3258C250.191 28.8497 249.786 27.19 249.819 25.5099C249.787 23.8263 250.202 22.1645 251.023 20.6939C251.797 19.3279 252.941 18.207 254.322 17.4592C255.763 16.7103 257.363 16.3193 258.987 16.3193C260.611 16.3193 262.211 16.7103 263.652 17.4592C265.032 18.2083 266.173 19.329 266.947 20.6939C267.77 22.1637 268.185 23.8261 268.151 25.5099C268.184 27.1982 267.756 28.8634 266.911 30.3258C266.118 31.6925 264.96 32.8122 263.568 33.5605C262.118 34.3341 260.496 34.7276 258.853 34.7043C257.239 34.7277 255.646 34.3337 254.229 33.5605ZM261.16 30.1813C261.897 29.768 262.496 29.1469 262.882 28.3954C263.335 27.4999 263.557 26.5052 263.528 25.5018C263.528 23.8082 263.083 22.5053 262.192 21.5929C261.771 21.1516 261.264 20.8022 260.702 20.5667C260.139 20.3311 259.534 20.2146 258.925 20.2244C258.32 20.2112 257.72 20.3263 257.163 20.5622C256.606 20.7981 256.105 21.1494 255.694 21.5929C254.822 22.5026 254.387 23.8056 254.39 25.5018C254.393 27.1981 254.815 28.5011 255.658 29.4108C256.064 29.856 256.56 30.2087 257.114 30.4449C257.668 30.681 258.267 30.7951 258.869 30.7793C259.675 30.7819 260.469 30.5759 261.172 30.1813H261.16Z" fill="white"/>
</svg>
