<svg width="46" height="32" viewBox="0 0 46 32" fill="none" xmlns="http://www.w3.org/2000/svg">
<path d="M33.5901 4.45249C33.5901 4.33375 33.5305 4.15565 33.4111 4.09628C33.2918 3.97754 33.1725 3.97754 32.9935 3.97754L18.3761 6.70852C18.1375 6.76789 17.9585 6.946 17.9585 7.18348V21.6696C17.6602 21.3727 17.3022 21.1352 16.8846 20.8978C15.8703 20.4228 14.6174 20.3041 13.3645 20.5415C10.7393 21.0759 8.94942 23.1538 9.36706 25.1723C9.60571 26.1816 10.262 27.0128 11.3359 27.4877C11.9922 27.7846 12.7678 27.9627 13.6031 27.9627C14.0208 27.9627 14.4384 27.9033 14.856 27.844C17.1829 27.369 18.8534 25.6473 18.9131 23.8662V11.2206L32.5759 8.66771V18.9386C32.2776 18.6417 31.9196 18.4043 31.5019 18.1668C30.4877 17.6918 29.2348 17.5731 27.9818 17.8106C25.3567 18.3449 23.5668 20.4228 23.9844 22.4414C24.2231 23.4506 24.8794 24.2818 25.9533 24.7568C26.6096 25.0536 27.3852 25.2317 28.2205 25.2317C28.6381 25.2317 29.0558 25.1723 29.4734 25.113C31.8003 24.638 33.4708 22.9163 33.5305 21.1352V4.45249H33.5901ZM14.7367 26.9534C13.7224 27.1909 12.6485 27.0722 11.8132 26.6566C11.0376 26.3004 10.5006 25.7067 10.3217 24.9942C10.0233 23.51 11.4553 21.907 13.5434 21.4915C13.9611 21.3727 14.3191 21.3727 14.677 21.3727C15.3333 21.3727 15.9896 21.4915 16.5266 21.7289C17.3022 22.0851 17.8392 22.6788 18.0182 23.3913C18.3165 24.9349 16.8249 26.4785 14.7367 26.9534ZM18.9728 10.2113V7.53969L32.6355 4.98682V7.7178L18.9728 10.2113ZM29.3541 24.2224C28.3398 24.4599 27.2659 24.3412 26.4306 23.9256C25.655 23.5694 25.118 22.9757 24.9987 22.2633C24.7004 20.779 26.1323 19.1761 28.2205 18.7605C28.5785 18.7011 28.9364 18.6417 29.2944 18.6417C29.9507 18.6417 30.607 18.7605 31.144 18.9979C31.9196 19.3542 32.4565 19.9479 32.6355 20.6603C32.8742 22.2039 31.4423 23.7475 29.3541 24.2224Z" fill="#0065C2"/>
<path d="M0.477302 0.949907H45.5227C45.7614 0.949907 46 0.71243 46 0.474954C46 0.237477 45.7614 0 45.5227 0H0.477302C0.238651 0 0 0.237477 0 0.474954C0 0.71243 0.238651 0.949907 0.477302 0.949907Z" fill="#0065C2"/>
<path d="M45.5227 7.48071H36.8716C36.6329 7.48071 36.3943 7.71819 36.3943 7.95567C36.3943 8.19314 36.6329 8.43062 36.8716 8.43062H45.5227C45.7613 8.43062 46 8.19314 46 7.95567C46 7.71819 45.7613 7.48071 45.5227 7.48071Z" fill="#0065C2"/>
<path d="M0.477302 8.43062H14.9157C15.1543 8.43062 15.393 8.19314 15.393 7.95567C15.393 7.71819 15.1543 7.48071 14.9157 7.48071H0.477302C0.238651 7.48071 0 7.71819 0 7.95567C0 8.19314 0.238651 8.43062 0.477302 8.43062Z" fill="#0065C2"/>
<path d="M45.5228 14.9609H36.7523C36.5137 14.9609 36.275 15.1984 36.275 15.4359C36.275 15.6734 36.5137 15.9108 36.7523 15.9108H45.5228C45.7614 15.9108 46.0001 15.6734 46.0001 15.4359C46.0001 15.1984 45.7614 14.9609 45.5228 14.9609Z" fill="#0065C2"/>
<path d="M30.607 15.4359C30.607 15.1984 30.3684 14.9609 30.1297 14.9609H21.6576C21.4189 14.9609 21.1803 15.1984 21.1803 15.4359C21.1803 15.6734 21.4189 15.9108 21.6576 15.9108H30.1297C30.3684 15.9108 30.607 15.6734 30.607 15.4359Z" fill="#0065C2"/>
<path d="M0.477302 15.9108H14.9157C15.1543 15.9108 15.393 15.6734 15.393 15.4359C15.393 15.1984 15.1543 14.9609 14.9157 14.9609H0.477302C0.238651 14.9609 0 15.139 0 15.4359C0 15.7327 0.238651 15.9108 0.477302 15.9108Z" fill="#0065C2"/>
<path d="M45.5228 22.9758H35.9171C35.6784 22.9758 35.4398 23.2133 35.4398 23.4508C35.4398 23.6883 35.6784 23.9257 35.9171 23.9257H45.5228C45.7614 23.9257 46.0001 23.6883 46.0001 23.4508C46.0001 23.2133 45.7614 22.9758 45.5228 22.9758Z" fill="#0065C2"/>
<path d="M0.477302 23.9257H6.74189C6.98054 23.9257 7.2192 23.6883 7.2192 23.4508C7.2192 23.2133 6.98054 22.9758 6.74189 22.9758H0.477302C0.238651 22.9758 0 23.2133 0 23.4508C0 23.6883 0.238651 23.9257 0.477302 23.9257Z" fill="#0065C2"/>
<path d="M45.5227 31.0503H0.477302C0.238651 31.0503 0 31.2878 0 31.5252C0 31.7627 0.238651 32.0002 0.477302 32.0002H45.5227C45.7614 32.0002 46 31.7627 46 31.5252C46 31.2878 45.7614 31.0503 45.5227 31.0503Z" fill="#0065C2"/>
</svg>
