<svg width="39" height="41" viewBox="0 0 39 41" fill="none" xmlns="http://www.w3.org/2000/svg">
<path d="M20.2406 14.3048C21.4147 15.262 23.0692 15.9533 25.1507 15.9533C27.1788 15.9533 29.5271 15.3152 32.1956 13.6667C38.013 10.0506 37.3726 1.01038 37.3192 0.638132L37.2658 0L36.6788 0.319066C36.6254 0.319066 33.3164 2.07393 29.7939 2.393C29.1535 2.44617 28.513 2.44617 27.8726 2.49935C26.0046 2.49935 24.0299 2.55253 21.8951 3.82879C19.8136 5.05188 18.3726 7.28534 18.2125 9.51881C18.1057 11.1141 18.5861 12.5499 19.6535 13.7198C13.1422 21.0052 10.7939 31.3217 14.3698 41L15.1703 40.6809C11.7012 31.3217 13.9428 21.3774 20.2406 14.3048ZM19.0664 9.57198C19.2265 7.55123 20.454 5.63684 22.322 4.5201C24.2434 3.35019 26.058 3.29702 27.9259 3.24384C28.5664 3.24384 29.2068 3.19066 29.9007 3.13748C32.7293 2.8716 35.3445 1.80804 36.5186 1.27626C36.572 3.35019 36.2518 10.0506 31.7686 12.869C26.8052 15.9533 22.9091 15.262 20.881 13.6135C23.7097 10.6355 27.2855 8.18936 31.4484 6.59403L31.1282 5.79637C26.8052 7.44488 23.1226 9.94423 20.2406 12.9754C19.3866 12.1245 18.9597 10.9014 19.0664 9.57198Z" fill="#196E31"/>
<path d="M37.3725 21.9622C37.3191 21.9622 33.5831 22.3344 30.2208 21.3241C29.6337 21.1645 28.9932 20.8987 28.4062 20.6859C26.5916 20.0478 24.7236 19.3565 22.2685 19.7287C19.8668 20.101 17.732 21.6431 16.718 23.6639C16.6112 23.9298 16.5045 24.1957 16.3977 24.4616L16.2376 24.7806C16.2376 24.7806 16.291 24.7806 16.291 24.8338C15.9708 26.1632 16.1309 27.5459 16.8247 28.8221C17.9989 30.9492 20.7208 32.9168 25.0972 32.9168C26.0579 32.9168 27.0719 32.8105 28.1927 32.5977C34.9174 31.3747 37.6393 22.7599 37.7994 22.3876L38.0129 21.7495L37.3725 21.9622ZM28.0859 31.9064C22.3219 32.97 18.9062 30.8429 17.6253 28.5562C17.0916 27.5459 16.8781 26.4291 17.1449 25.3124C18.8528 26.1101 22.6955 27.7586 24.9371 27.7586C28.5129 27.7586 31.3416 26.376 31.4483 26.3228L31.0747 25.5251C31.0213 25.5251 28.2994 26.9077 24.9371 26.9077C22.8556 26.9077 19.0129 25.206 17.4118 24.5147C17.4652 24.4084 17.5185 24.2488 17.5719 24.1425C18.4792 22.3345 20.3472 21.005 22.482 20.6328C24.7236 20.2605 26.3781 20.8987 28.1393 21.5368C28.7264 21.7495 29.3668 21.9622 30.0073 22.1749C32.7292 22.9726 35.5579 22.9194 36.8388 22.8662C36.0382 24.8338 33.3163 30.9492 28.0859 31.9064Z" fill="#196E31"/>
<path d="M14.0495 17.2292C13.8894 14.7831 12.7686 13.1346 11.7012 11.5392C11.381 11.0075 11.0074 10.4757 10.6872 9.9439C8.92593 6.91277 8.39223 3.19033 8.39223 3.13716L8.28549 2.49902L7.75178 2.81809C7.43155 3.0308 -0.360582 7.71044 0.0130131 14.5172C0.333238 20.2072 2.68155 23.6637 6.57762 24.2487C7.05796 24.3019 7.48492 24.3551 7.96526 24.3551C9.67313 24.3551 11.1141 23.8233 12.1816 22.8661C13.5692 21.5366 14.2096 19.5691 14.0495 17.2292ZM11.5945 22.2279C11.5411 22.2811 11.4344 22.3343 11.381 22.3875C10.4203 21.5366 8.072 19.25 7.05796 16.6443C5.93717 13.879 6.36414 10.582 6.36414 10.5289L5.5102 10.4225C5.5102 10.582 5.02987 13.9854 6.2574 16.9634C7.32481 19.6222 9.56638 21.8557 10.6338 22.8661C9.56638 23.3979 8.23211 23.6106 6.68436 23.3979C3.21526 22.9193 1.18717 19.7286 0.866946 14.464C0.600092 9.19941 5.93717 5.10473 7.64504 3.88164C7.85852 5.10473 8.49897 7.86997 9.93998 10.3161C10.2602 10.9011 10.6338 11.4329 11.0074 11.9647C12.0748 13.56 13.0355 14.9958 13.1956 17.2824C13.3557 19.3564 12.7686 21.1112 11.5945 22.2279Z" fill="#196E31"/>
</svg>
